<svg width="41" height="41" viewBox="0 0 41 41" fill="none" xmlns="http://www.w3.org/2000/svg">
<path d="M20.5 40.7338C31.8218 40.7338 41 31.6152 41 20.3669C41 9.11857 31.8218 0 20.5 0C9.17816 0 0 9.11857 0 20.3669C0 31.6152 9.17816 40.7338 20.5 40.7338Z" fill="url(#paint0_linear)"/>
<path d="M8.53217 20.1902L22.3371 14.5393C23.6998 13.9506 28.3212 12.067 28.3212 12.067C28.3212 12.067 30.4542 11.2429 30.2764 13.2443C30.2172 14.0684 29.7432 16.9527 29.2692 20.0725L27.788 29.3141C27.788 29.3141 27.6695 30.668 26.6623 30.9034C25.655 31.1389 23.9961 30.0793 23.6998 29.8439C23.4628 29.6673 19.2562 27.0184 17.7157 25.7234C17.301 25.3702 16.827 24.6639 17.775 23.8398C19.9079 21.8973 22.4556 19.4839 23.9961 17.9534C24.7071 17.247 25.418 15.5988 22.4556 17.6002L14.1015 23.1923C14.1015 23.1923 13.1536 23.7809 11.3761 23.2511C9.59864 22.7214 7.52494 22.015 7.52494 22.015C7.52494 22.015 6.10297 21.132 8.53217 20.1902Z" fill="white"/>
<defs>
<linearGradient id="paint0_linear" x1="27.3349" y1="6.79054" x2="17.1972" y2="30.5982" gradientUnits="userSpaceOnUse">
<stop stop-color="#37AEE2"/>
<stop offset="1" stop-color="#1E96C8"/>
</linearGradient>
</defs>
</svg>
