<svg width="1521" height="182" viewBox="0 0 1521 182" fill="none" xmlns="http://www.w3.org/2000/svg">
<path d="M99.2784 143H129.434C133.986 143 137.21 138.448 135.693 134.086L96.6232 17.0667C95.2956 13.0838 91.3127 10.2389 86.9506 10.2389H49.7775C45.4154 10.2389 41.6222 13.0838 40.1049 17.0667L1.03527 134.086C-0.482001 138.448 2.93185 143 7.48366 143H37.4497C41.2429 143 44.6567 140.534 45.605 136.741L49.5879 122.517H87.1403L91.1231 136.741C92.261 140.534 95.4852 143 99.2784 143ZM57.7432 92.9301L68.3641 54.4294L78.9849 92.9301H57.7432Z" fill="#262626"/>
<path d="M184.85 61.8261V53.6708C184.85 49.8776 181.815 46.8431 178.212 46.8431H154.125C150.332 46.8431 147.298 49.8776 147.298 53.6708V136.172C147.298 139.965 150.332 143 154.125 143H178.212C181.815 143 184.85 139.965 184.85 136.172V108.482C184.85 97.1026 185.229 81.9299 207.988 83.6368C211.023 84.0161 213.678 81.5506 213.678 78.7057V50.0672C213.678 46.8431 210.644 44.5671 207.419 45.1361C198.505 47.0327 190.16 53.1018 184.85 61.8261Z" fill="#262626"/>
<path d="M288.601 44.5671C277.98 44.5671 269.824 48.1707 263.566 53.8604V17.0667C263.566 13.2735 260.531 10.2389 256.738 10.2389H232.841C229.048 10.2389 226.013 13.2735 226.013 17.0667V136.172C226.013 139.965 229.048 143 232.841 143H258.445C261.29 143 263.566 140.724 263.566 137.879V135.603C269.445 141.483 277.6 145.276 288.601 145.276C318.567 145.276 332.981 120.241 332.981 95.0163C332.981 69.6021 318.567 44.5671 288.601 44.5671ZM280.066 110.379C270.773 110.379 264.514 103.93 264.514 95.0163C264.514 85.9127 270.773 79.4643 280.066 79.4643C289.549 79.4643 295.618 85.9127 295.618 95.0163C295.618 103.93 289.549 110.379 280.066 110.379Z" fill="#262626"/>
<path d="M352.118 143H376.205C379.809 143 382.843 139.965 382.843 136.172V53.6708C382.843 49.8776 379.809 46.8431 376.205 46.8431H352.118C348.325 46.8431 345.291 49.8776 345.291 53.6708V136.172C345.291 139.965 348.325 143 352.118 143ZM364.067 39.4464C374.877 39.4464 383.602 30.7221 383.602 19.9115C383.602 9.101 374.877 0.376709 364.067 0.376709C353.256 0.376709 344.532 9.101 344.532 19.9115C344.532 30.7221 353.256 39.4464 364.067 39.4464Z" fill="#262626"/>
<path d="M465.216 72.2573V53.6708C465.216 49.8776 462.181 46.8431 458.388 46.8431H446.25V33.3773C446.25 29.7738 443.215 26.7392 439.422 26.7392H415.525C411.732 26.7392 408.697 29.7738 408.697 33.3773V46.8431H401.87C398.266 46.8431 395.232 49.8776 395.232 53.6708V72.2573C395.232 75.8608 398.266 78.8953 401.87 78.8953H408.697V102.603C408.697 121.379 416.473 144.897 448.526 144.897C454.595 144.897 458.198 144.517 461.043 143.948C463.319 143.379 465.216 141.293 465.216 139.017V114.93C465.216 112.086 462.75 109.62 459.905 109.81C459.147 109.999 458.388 109.999 457.819 109.999C449.474 109.999 446.25 105.258 446.25 99.3785V78.8953H458.388C462.181 78.8953 465.216 75.8608 465.216 72.2573Z" fill="#262626"/>
<path d="M518.975 61.8261V53.6708C518.975 49.8776 515.94 46.8431 512.337 46.8431H488.25C484.457 46.8431 481.423 49.8776 481.423 53.6708V136.172C481.423 139.965 484.457 143 488.25 143H512.337C515.94 143 518.975 139.965 518.975 136.172V108.482C518.975 97.1026 519.354 81.9299 542.113 83.6368C545.148 84.0161 547.803 81.5506 547.803 78.7057V50.0672C547.803 46.8431 544.768 44.5671 541.544 45.1361C532.63 47.0327 524.285 53.1018 518.975 61.8261Z" fill="#262626"/>
<path d="M622.96 51.9638V53.8604C616.701 48.1707 608.546 44.5671 597.925 44.5671C567.959 44.5671 553.545 69.6021 553.545 95.0163C553.545 120.241 567.959 145.276 597.925 145.276C608.925 145.276 617.08 141.483 622.96 135.603V137.879C622.96 140.724 625.236 143 628.081 143H653.684C657.478 143 660.512 139.965 660.512 136.172V53.6708C660.512 49.8776 657.478 46.8431 653.684 46.8431H628.081C625.236 46.8431 622.96 49.1189 622.96 51.9638ZM606.459 110.379C596.977 110.379 590.907 103.93 590.907 95.0163C590.907 85.9127 596.977 79.4643 606.459 79.4643C615.942 79.4643 622.011 85.9127 622.011 95.0163C622.011 103.93 615.942 110.379 606.459 110.379Z" fill="#262626"/>
<path d="M742.237 51.9638V54.4294C736.547 48.3603 728.392 44.5671 717.392 44.5671C687.236 44.5671 672.822 66.1882 672.822 91.6025C672.822 117.017 689.133 138.638 717.392 138.638C728.582 138.638 736.547 134.845 742.237 129.155V132.948C742.237 144.517 736.547 151.724 722.323 151.724C714.737 151.724 708.857 149.448 705.254 146.603C703.736 145.465 701.461 145.086 699.754 146.224L680.977 157.414C678.322 159.121 677.753 162.914 680.029 165.19C689.133 175.242 706.012 181.311 724.409 181.311C758.358 181.311 779.79 163.862 779.79 136.172V53.6708C779.79 49.8776 776.755 46.8431 773.151 46.8431H747.358C744.513 46.8431 742.237 49.1189 742.237 51.9638ZM725.737 106.965C716.444 106.965 710.185 100.706 710.185 91.6025C710.185 82.4989 716.444 76.0505 725.737 76.0505C735.22 76.0505 741.289 82.4989 741.289 91.6025C741.289 100.706 735.22 106.965 725.737 106.965Z" fill="#262626"/>
<path d="M843.118 44.5671C813.91 44.5671 792.1 65.8089 792.1 95.0163C792.1 123.655 813.341 145.276 848.049 145.276C865.308 145.276 878.963 137.879 887.119 128.586C889.205 126.31 888.446 122.706 885.791 121L869.48 111.327C867.584 110.189 865.118 110.379 863.601 111.896C860.377 114.551 855.256 117.206 848.049 117.206C837.997 117.206 831.549 112.465 828.893 104.31H887.688C891.481 104.31 894.326 101.275 894.515 97.4819C895.084 61.6364 871.377 44.5671 843.118 44.5671ZM828.704 85.7231C830.79 77.7574 835.911 72.6366 844.066 72.6366C852.79 72.6366 857.532 77.3781 859.428 85.7231H828.704Z" fill="#262626"/>
<path d="M924.492 104.689C913.302 104.689 904.198 113.793 904.198 124.982C904.198 136.362 913.302 145.465 924.492 145.465C935.871 145.465 944.975 136.362 944.975 124.982C944.975 113.793 935.871 104.689 924.492 104.689Z" fill="#262626"/>
<path d="M1040.83 18.5839V56.7053H1002.89V18.5839C1002.89 14.0321 999.101 10.2389 994.36 10.2389H968.756C964.015 10.2389 960.221 14.0321 960.221 18.5839V134.465C960.221 139.207 964.015 143 968.756 143H994.36C999.101 143 1002.89 139.207 1002.89 134.465V95.206H1040.83V134.465C1040.83 139.207 1044.62 143 1049.36 143H1075.15C1079.71 143 1083.5 139.207 1083.5 134.465V18.5839C1083.5 14.0321 1079.71 10.2389 1075.15 10.2389H1049.36C1044.62 10.2389 1040.83 14.0321 1040.83 18.5839Z" fill="#262626"/>
<path d="M1149.69 44.5671C1119.72 44.5671 1096.78 65.0503 1096.78 95.0163C1096.78 124.793 1119.72 145.465 1149.69 145.465C1179.85 145.465 1202.79 124.793 1202.79 95.0163C1202.79 65.0503 1179.85 44.5671 1149.69 44.5671ZM1149.69 110.568C1140.4 110.568 1134.33 104.12 1134.33 95.0163C1134.33 85.9127 1140.4 79.4643 1149.69 79.4643C1159.17 79.4643 1165.24 85.9127 1165.24 95.0163C1165.24 104.12 1159.17 110.568 1149.69 110.568Z" fill="#262626"/>
<path d="M1283.33 46.8431C1279.54 46.8431 1276.5 49.8776 1276.5 53.6708V95.206C1276.5 102.792 1272.9 108.482 1264.55 108.482C1256.02 108.482 1252.61 102.792 1252.61 95.206V53.6708C1252.61 49.8776 1249.57 46.8431 1245.78 46.8431H1221.69C1217.9 46.8431 1215.05 49.8776 1215.05 53.6708V106.965C1215.05 121 1221.31 145.276 1250.33 145.276C1262.85 145.276 1271 139.965 1276.5 133.138V137.879C1276.5 140.724 1278.78 143 1281.62 143H1307.23C1311.02 143 1314.05 139.965 1314.05 136.172V53.6708C1314.05 49.8776 1311.02 46.8431 1307.23 46.8431H1283.33Z" fill="#262626"/>
<path d="M1373.9 82.3092C1366.12 80.6023 1360.62 80.0333 1360.62 75.4815C1360.62 72.0676 1363.85 69.7917 1369.16 69.7917C1372.57 69.7917 1375.42 70.9297 1377.31 73.2056C1378.45 74.7229 1380.54 75.2918 1382.43 74.7229L1402.54 69.9814C1405.76 69.0331 1407.47 65.4296 1405.76 62.5847C1399.12 50.2569 1383.19 44.5671 1368.78 44.5671C1344.31 44.5671 1324.59 55.188 1324.59 76.4298C1324.59 96.5336 1337.67 102.603 1356.64 106.585C1366.31 108.672 1374.28 109.051 1374.28 113.982C1374.28 117.396 1371.05 119.672 1365.36 119.672C1360.43 119.672 1357.4 117.775 1355.69 115.689C1354.55 114.172 1352.28 113.603 1350.38 114.172L1326.86 121.379C1323.83 122.327 1322.5 125.931 1324.02 128.586C1331.04 141.293 1349.81 145.276 1366.12 145.276C1394.38 145.276 1411.83 134.465 1411.83 112.655C1411.83 94.068 1398.18 87.43 1373.9 82.3092Z" fill="#262626"/>
<path d="M1469.51 44.5671C1440.3 44.5671 1418.49 65.8089 1418.49 95.0163C1418.49 123.655 1439.73 145.276 1474.44 145.276C1491.7 145.276 1505.35 137.879 1513.51 128.586C1515.6 126.31 1514.84 122.706 1512.18 121L1495.87 111.327C1493.98 110.189 1491.51 110.379 1489.99 111.896C1486.77 114.551 1481.65 117.206 1474.44 117.206C1464.39 117.206 1457.94 112.465 1455.29 104.31H1514.08C1517.87 104.31 1520.72 101.275 1520.91 97.4819C1521.48 61.6364 1497.77 44.5671 1469.51 44.5671ZM1455.1 85.7231C1457.18 77.7574 1462.3 72.6366 1470.46 72.6366C1479.18 72.6366 1483.92 77.3781 1485.82 85.7231H1455.1Z" fill="#262626"/>
</svg>
