<svg width="66" height="50" viewBox="0 0 66 50" fill="none" xmlns="http://www.w3.org/2000/svg">
<path d="M1.14258 48.2844H65.6426V49.3891H1.14258V48.2844Z" fill="#7A8490" stroke="black" stroke-width="0.5"/>
<path d="M10.9434 16.084H22.6725V47.7849H10.9434V16.084Z" fill="#FFD1B7" stroke="black" stroke-width="0.5"/>
<path d="M27.5254 16.084H39.2545V47.7849H27.5254V16.084Z" fill="#FFD1B7" stroke="black" stroke-width="0.5"/>
<path d="M44.1094 16.084H55.8385V47.7849H44.1094V16.084Z" fill="#FFD1B7" stroke="black" stroke-width="0.5"/>
<path opacity="0.08" d="M10.9434 32.9233H22.6725V33.7492H10.9434V32.9233Z" fill="#2C2C34" stroke="black" stroke-width="0.5"/>
<path opacity="0.08" d="M27.5254 32.9233H39.2545V33.7492H27.5254V32.9233Z" fill="#2C2C34" stroke="black" stroke-width="0.5"/>
<path opacity="0.08" d="M44.1094 32.9233H55.8385V33.7492H44.1094V32.9233Z" fill="#2C2C34" stroke="black" stroke-width="0.5"/>
<path d="M44.1094 31.4453H55.8385V32.423H44.1094V31.4453Z" fill="#FFE3B8" stroke="black" stroke-width="0.5"/>
<path d="M27.5254 31.4453H39.2545V32.423H27.5254V31.4453Z" fill="#FFE3B8" stroke="black" stroke-width="0.5"/>
<path d="M10.9434 31.4453H22.6725V32.423H10.9434V31.4453Z" fill="#FFE3B8" stroke="black" stroke-width="0.5"/>
<path opacity="0.08" d="M10.9434 16.084H11.5529V47.7031H10.9434V16.084Z" fill="#2C2C34" stroke="black" stroke-width="0.5"/>
<path opacity="0.08" d="M22.0605 16.084H22.6701V47.7031H22.0605V16.084Z" fill="#2C2C34" stroke="black" stroke-width="0.5"/>
<path opacity="0.08" d="M27.5254 16.084H28.135V47.7031H27.5254V16.084Z" fill="#2C2C34" stroke="black" stroke-width="0.5"/>
<path opacity="0.08" d="M38.6465 16.084H39.2561V47.7031H38.6465V16.084Z" fill="#2C2C34" stroke="black" stroke-width="0.5"/>
<path opacity="0.08" d="M44.1074 16.084H44.717V47.7031H44.1074V16.084Z" fill="#2C2C34" stroke="black" stroke-width="0.5"/>
<path opacity="0.08" d="M55.2266 16.084H55.8361V47.7031H55.2266V16.084Z" fill="#2C2C34" stroke="black" stroke-width="0.5"/>
<path d="M55.2305 16.084H61.3036V18.1368H55.2305V16.084Z" fill="#FFE3B8" stroke="black" stroke-width="0.5"/>
<path d="M55.2305 45.7319H61.3036V47.7847H55.2305V45.7319Z" fill="#FFE3B8" stroke="black" stroke-width="0.5"/>
<path d="M56.3398 18.6375H60.1944V45.2323H56.3398V18.6375Z" fill="#FFE3B8" stroke="black" stroke-width="0.5"/>
<path d="M38.6484 16.084H44.7216V18.1368H38.6484V16.084Z" fill="#FFE3B8" stroke="black" stroke-width="0.5"/>
<path d="M38.6484 45.7319H44.7216V47.7847H38.6484V45.7319Z" fill="#FFE3B8" stroke="black" stroke-width="0.5"/>
<path d="M39.7578 18.6375H43.6123V45.2323H39.7578V18.6375Z" fill="#FFE3B8" stroke="black" stroke-width="0.5"/>
<path d="M22.0625 16.084H28.1356V18.1368H22.0625V16.084Z" fill="#FFE3B8" stroke="black" stroke-width="0.5"/>
<path d="M22.0625 45.7319H28.1356V47.7847H22.0625V45.7319Z" fill="#FFE3B8" stroke="black" stroke-width="0.5"/>
<path d="M23.1738 18.6375H27.0283V45.2323H23.1738V18.6375Z" fill="#FFE3B8" stroke="black" stroke-width="0.5"/>
<path d="M5.48047 16.084H11.5536V18.1368H5.48047V16.084Z" fill="#FFE3B8" stroke="black" stroke-width="0.5"/>
<path d="M5.48047 45.7319H11.5536V47.7847H5.48047V45.7319Z" fill="#FFE3B8" stroke="black" stroke-width="0.5"/>
<path d="M6.58984 18.6375H10.4443V45.2323H6.58984V18.6375Z" fill="#FFE3B8" stroke="black" stroke-width="0.5"/>
<path d="M3.70273 14.8641H63.0819V15.6843H3.70273V14.8641Z" fill="#FFE2B8" stroke="black" stroke-width="0.3"/>
<path d="M3.70273 10.0638H63.0819V10.884H3.70273V10.0638Z" fill="#FFE2B8" stroke="black" stroke-width="0.3"/>
<path d="M4.64844 11.2852H62.1356V14.4617H4.64844V11.2852Z" fill="#FFE3B8" stroke="black" stroke-width="0.5"/>
<path opacity="0.08" d="M4.54844 11.1852H62.2356V11.5529H4.54844V11.1852Z" fill="#2C2C34" stroke="black" stroke-width="0.3"/>
<path opacity="0.08" d="M4.54844 14.1959H62.2356V14.5637H4.54844V14.1959Z" fill="#2C2C34" stroke="black" stroke-width="0.3"/>
<path d="M20.1568 23.1861V30.7065H13.3688V23.1861C13.3688 21.3116 14.8883 19.7921 16.7628 19.7921H16.7628C18.6373 19.7921 20.1568 21.3116 20.1568 23.1861Z" fill="#57D4FF" stroke="black" stroke-width="0.3"/>
<path d="M13.4083 30.5179V30.6679H13.5583H19.9691H20.1191V30.5179V23.1862C20.1191 21.3359 18.6142 19.8309 16.7637 19.8309C14.9132 19.8309 13.4083 21.3359 13.4083 23.1862V30.5179ZM13.0309 31.0454V23.1862C13.0309 21.1281 14.7053 19.4535 16.7637 19.4535C18.8221 19.4535 20.4965 21.1281 20.4965 23.1862V31.0454H13.0309Z" fill="#FFE3B8" stroke="black" stroke-width="0.3"/>
<path d="M13.3707 22.9972H20.1588V23.3746H13.3707V22.9972Z" fill="#FFE3B8" stroke="black" stroke-width="0.3"/>
<path d="M16.5738 23.336H16.9513V30.7065H16.5738V23.336Z" fill="#FFE3B8" stroke="black" stroke-width="0.3"/>
<path d="M36.7838 23.1861V30.7065H29.9957V23.1861C29.9957 21.3117 31.5153 19.7921 33.3897 19.7921H33.3897C35.2642 19.7921 36.7838 21.3116 36.7838 23.1861Z" fill="#57D4FF" stroke="black" stroke-width="0.3"/>
<path d="M30.0352 30.5179V30.6679H30.1852H36.5961H36.7461V30.5179V23.1862C36.7461 21.3359 35.2412 19.8309 33.3907 19.8309C31.5402 19.8309 30.0352 21.3359 30.0352 23.1862V30.5179ZM37.1235 31.0454H29.6578V23.1862C29.6578 21.1281 31.3323 19.4535 33.3907 19.4535C35.449 19.4535 37.1235 21.1281 37.1235 23.1862V31.0454Z" fill="#FFE3B8" stroke="black" stroke-width="0.3"/>
<path d="M29.9977 22.9972H36.7857V23.3746H29.9977V22.9972Z" fill="#FFE3B8" stroke="black" stroke-width="0.3"/>
<path d="M33.2008 23.336H33.5782V30.7065H33.2008V23.336Z" fill="#FFE3B8" stroke="black" stroke-width="0.3"/>
<path d="M53.3658 23.1861V30.7065H46.5777V23.1861C46.5777 21.3116 48.0973 19.7921 49.9718 19.7921H49.9718C51.8462 19.7921 53.3658 21.3116 53.3658 23.1861Z" fill="#57D4FF" stroke="black" stroke-width="0.3"/>
<path d="M46.6173 30.5179V30.6679H46.7673H53.1781H53.3281V30.5179V23.1862C53.3281 21.3359 51.8232 19.8309 49.9727 19.8309C48.1222 19.8309 46.6173 21.3359 46.6173 23.1862V30.5179ZM53.7056 31.0454H46.2398V23.1862C46.2398 21.1281 47.9143 19.4535 49.9727 19.4535C52.0311 19.4535 53.7056 21.1281 53.7056 23.1862V31.0454Z" fill="#FFE3B8" stroke="black" stroke-width="0.3"/>
<path d="M46.5777 22.9972H53.3658V23.3746H46.5777V22.9972Z" fill="#FFE3B8" stroke="black" stroke-width="0.3"/>
<path d="M49.7848 23.336H50.1622V30.7065H49.7848V23.336Z" fill="#FFE3B8" stroke="black" stroke-width="0.3"/>
<path d="M20.1568 37.8819V45.4023H13.3688V37.8819C13.3688 36.0075 14.8883 34.4879 16.7628 34.4879H16.7628C18.6373 34.4879 20.1568 36.0075 20.1568 37.8819Z" fill="#57D4FF" stroke="black" stroke-width="0.3"/>
<path d="M13.4083 45.2137V45.3637H13.5583H19.9691H20.1191V45.2137V37.882C20.1191 36.0317 18.6142 34.5267 16.7637 34.5267C14.9132 34.5267 13.4083 36.0317 13.4083 37.882V45.2137ZM13.0309 45.7412V37.882C13.0309 35.8239 14.7053 34.1493 16.7637 34.1493C18.8221 34.1493 20.4965 35.8239 20.4965 37.882V45.7412H13.0309Z" fill="#FFE3B8" stroke="black" stroke-width="0.3"/>
<path d="M13.3707 37.6935H20.1588V38.0709H13.3707V37.6935Z" fill="#FFE3B8" stroke="black" stroke-width="0.3"/>
<path d="M16.5738 38.0321H16.9513V45.4026H16.5738V38.0321Z" fill="#FFE3B8" stroke="black" stroke-width="0.3"/>
<path d="M53.3658 37.8819V45.4023H46.5777V37.8819C46.5777 36.0075 48.0973 34.4879 49.9718 34.4879H49.9718C51.8462 34.4879 53.3658 36.0075 53.3658 37.8819Z" fill="#57D4FF" stroke="black" stroke-width="0.3"/>
<path d="M46.6173 45.2137V45.3637H46.7673H53.1781H53.3281V45.2137V37.882C53.3281 36.0317 51.8232 34.5267 49.9727 34.5267C48.1222 34.5267 46.6173 36.0317 46.6173 37.882V45.2137ZM53.7056 45.7412H46.2398V37.882C46.2398 35.8239 47.9143 34.1493 49.9727 34.1493C52.0311 34.1493 53.7056 35.8239 53.7056 37.882V45.7412Z" fill="#FFE3B8" stroke="black" stroke-width="0.3"/>
<path d="M46.5777 37.6935H53.3658V38.0709H46.5777V37.6935Z" fill="#FFE3B8" stroke="black" stroke-width="0.3"/>
<path d="M49.7848 38.0321H50.1622V45.4026H49.7848V38.0321Z" fill="#FFE3B8" stroke="black" stroke-width="0.3"/>
<path opacity="0.08" d="M5.38047 15.984H61.4035V16.6935H5.38047V15.984Z" fill="#2C2C34" stroke="black" stroke-width="0.3"/>
<path d="M29.1227 35.9378H37.6601V47.8842H29.1227V35.9378Z" fill="#FFE3B8" stroke="black" stroke-width="0.3"/>
<path d="M33.0629 36.7396V47.8847H29.9204V36.7396H33.0629Z" fill="#57D4FF" stroke="black" stroke-width="0.3"/>
<path d="M30.359 37.1793H32.6224V39.4422H30.359V37.1793Z" fill="#FFE3B8" stroke="black" stroke-width="0.3"/>
<path d="M30.359 40.5985H32.6224V44.1807H30.359V40.5985Z" fill="#FFE3B8" stroke="black" stroke-width="0.3"/>
<mask id="path-59-inside-1" fill="white">
<path d="M33.2124 44.8806H32.6571C32.3615 44.8806 32.1211 44.6401 32.1211 44.3446V42.0372C32.1211 41.7417 32.3615 41.5012 32.6571 41.5012H33.2124V41.765H32.6571C32.507 41.765 32.3848 41.8871 32.3848 42.0372V44.3446C32.3848 44.4947 32.507 44.6168 32.6571 44.6168H33.2124V44.8806Z"/>
</mask>
<path d="M33.2124 44.8806H32.6571C32.3615 44.8806 32.1211 44.6401 32.1211 44.3446V42.0372C32.1211 41.7417 32.3615 41.5012 32.6571 41.5012H33.2124V41.765H32.6571C32.507 41.765 32.3848 41.8871 32.3848 42.0372V44.3446C32.3848 44.4947 32.507 44.6168 32.6571 44.6168H33.2124V44.8806Z" fill="white"/>
<path d="M33.2124 44.8806V45.1806H33.5124V44.8806H33.2124ZM33.2124 41.5012H33.5124V41.2012H33.2124V41.5012ZM33.2124 41.765V42.065H33.5124V41.765H33.2124ZM33.2124 44.6168H33.5124V44.3168H33.2124V44.6168ZM33.2124 44.5806H32.6571V45.1806H33.2124V44.5806ZM32.6571 44.5806C32.5272 44.5806 32.4211 44.4744 32.4211 44.3446H31.8211C31.8211 44.8058 32.1958 45.1806 32.6571 45.1806V44.5806ZM32.4211 44.3446V42.0372H31.8211V44.3446H32.4211ZM32.4211 42.0372C32.4211 41.9074 32.5272 41.8012 32.6571 41.8012V41.2012C32.1958 41.2012 31.8211 41.576 31.8211 42.0372H32.4211ZM32.6571 41.8012H33.2124V41.2012H32.6571V41.8012ZM32.9124 41.5012V41.765H33.5124V41.5012H32.9124ZM33.2124 41.465H32.6571V42.065H33.2124V41.465ZM32.6571 41.465C32.3413 41.465 32.0848 41.7213 32.0848 42.0372H32.6848C32.6848 42.0528 32.6726 42.065 32.6571 42.065V41.465ZM32.0848 42.0372V44.3446H32.6848V42.0372H32.0848ZM32.0848 44.3446C32.0848 44.6603 32.3413 44.9168 32.6571 44.9168V44.3168C32.6727 44.3168 32.6848 44.329 32.6848 44.3446H32.0848ZM32.6571 44.9168H33.2124V44.3168H32.6571V44.9168ZM32.9124 44.6168V44.8806H33.5124V44.6168H32.9124Z" fill="black" mask="url(#path-59-inside-1)"/>
<path d="M36.8617 36.7396V47.8847H33.7193V36.7396H36.8617Z" fill="#57D4FF" stroke="black" stroke-width="0.3"/>
<path d="M34.1578 37.1793H36.4213V39.4422H34.1578V37.1793Z" fill="#FFE3B8" stroke="black" stroke-width="0.3"/>
<path d="M34.1578 40.5985H36.4213V44.1807H34.1578V40.5985Z" fill="#FFE3B8" stroke="black" stroke-width="0.3"/>
<mask id="path-64-inside-2" fill="white">
<path d="M33.5684 44.8806H34.1236C34.4192 44.8806 34.6596 44.6401 34.6596 44.3446V42.0372C34.6596 41.7417 34.4192 41.5012 34.1236 41.5012H33.5684V41.765H34.1236C34.2737 41.765 34.3959 41.8871 34.3959 42.0372V44.3446C34.3959 44.4947 34.2737 44.6168 34.1236 44.6168H33.5684V44.8806Z"/>
</mask>
<path d="M33.5684 44.8806H34.1236C34.4192 44.8806 34.6596 44.6401 34.6596 44.3446V42.0372C34.6596 41.7417 34.4192 41.5012 34.1236 41.5012H33.5684V41.765H34.1236C34.2737 41.765 34.3959 41.8871 34.3959 42.0372V44.3446C34.3959 44.4947 34.2737 44.6168 34.1236 44.6168H33.5684V44.8806Z" fill="white"/>
<path d="M33.5684 44.8806H33.2684V45.1806H33.5684V44.8806ZM33.5684 41.5012V41.2012H33.2684V41.5012H33.5684ZM33.5684 41.765H33.2684V42.065H33.5684V41.765ZM33.5684 44.6168V44.3168H33.2684V44.6168H33.5684ZM33.5684 45.1806H34.1236V44.5806H33.5684V45.1806ZM34.1236 45.1806C34.5849 45.1806 34.9596 44.8058 34.9596 44.3446H34.3596C34.3596 44.4744 34.2535 44.5806 34.1236 44.5806V45.1806ZM34.9596 44.3446V42.0372H34.3596V44.3446H34.9596ZM34.9596 42.0372C34.9596 41.576 34.5849 41.2012 34.1236 41.2012V41.8012C34.2535 41.8012 34.3596 41.9074 34.3596 42.0372H34.9596ZM34.1236 41.2012H33.5684V41.8012H34.1236V41.2012ZM33.2684 41.5012V41.765H33.8684V41.5012H33.2684ZM33.5684 42.065H34.1236V41.465H33.5684V42.065ZM34.1236 42.065C34.1081 42.065 34.0959 42.0528 34.0959 42.0372H34.6959C34.6959 41.7213 34.4394 41.465 34.1236 41.465V42.065ZM34.0959 42.0372V44.3446H34.6959V42.0372H34.0959ZM34.0959 44.3446C34.0959 44.329 34.108 44.3168 34.1236 44.3168V44.9168C34.4395 44.9168 34.6959 44.6603 34.6959 44.3446H34.0959ZM34.1236 44.3168H33.5684V44.9168H34.1236V44.3168ZM33.2684 44.6168V44.8806H33.8684V44.6168H33.2684Z" fill="black" mask="url(#path-64-inside-2)"/>
<path d="M4.54844 7.27598H62.2356V9.76387H4.54844V7.27598Z" fill="#FFD1B7" stroke="black" stroke-width="0.3"/>
<path d="M3.70273 6.16782H63.0819V6.97536H3.70273V6.16782Z" fill="#FFE3B8" stroke="black" stroke-width="0.3"/>
<path d="M33.4041 0.316481L54.2827 9.76367H12.5027L33.4041 0.316481Z" fill="#FFE3B8" stroke="black" stroke-width="0.3"/>
<path d="M33.4027 2.86824L48.6415 9.76353H18.1472L33.4027 2.86824Z" fill="#FFD1B7" stroke="black" stroke-width="0.3"/>
</svg>
