<svg width="82" height="57" viewBox="0 0 82 57" fill="none" xmlns="http://www.w3.org/2000/svg">
<mask id="mask0" mask-type="alpha" maskUnits="userSpaceOnUse" x="24" y="0" width="33" height="57">
<rect x="24.3" y="0.3" width="32.4" height="56.4" rx="2.7" fill="#C4C4C4" stroke="black" stroke-width="0.6"/>
</mask>
<g mask="url(#mask0)">
<rect x="-6" width="33" height="57" fill="#CDD3D3"/>
<rect x="54" width="33" height="57" fill="#949E9F"/>
<rect x="24" y="7" width="33" height="43" fill="#8BC6D6"/>
<rect x="27" y="7" width="27" height="43" fill="#A2E5F8"/>
<rect x="24" y="7" width="3" height="43" fill="#C7EFF9"/>
<rect x="27" width="27" height="7" fill="#ABB7B7"/>
<rect x="27" y="50" width="27" height="7" fill="#AAB6B6"/>
<rect x="24.3" y="0.3" width="32.4" height="56.4" rx="2.7" stroke="black" stroke-width="0.6"/>
<path d="M24.3 3C24.3 1.50883 25.5088 0.3 27 0.3H54C55.4912 0.3 56.7 1.50883 56.7 3V6.7H24.3V3Z" stroke="black" stroke-width="0.6"/>
<path d="M56.7 54C56.7 55.4912 55.4912 56.7 54 56.7L27 56.7C25.5088 56.7 24.3 55.4912 24.3 54L24.3 50.3L56.7 50.3L56.7 54Z" stroke="black" stroke-width="0.6"/>
<circle cx="40.5" cy="3.5" r="1.2" stroke="black" stroke-width="0.6"/>
</g>
<path d="M11.3528 30.2752C11.3577 30.2643 11.3763 30.233 11.4428 30.1831C11.5394 30.1104 11.6977 30.0297 11.9257 29.9468C12.3786 29.782 13.0482 29.6292 13.8926 29.4993C15.5776 29.24 17.9141 29.0786 20.5011 29.0786C23.0882 29.0786 25.4248 29.24 27.1097 29.4993C27.9541 29.6292 28.6237 29.782 29.0767 29.9468C29.3046 30.0297 29.4629 30.1104 29.5595 30.1831C29.626 30.233 29.6446 30.2643 29.6495 30.2752C29.6449 30.2864 29.6264 30.3215 29.5542 30.3789C29.4561 30.4569 29.2966 30.5447 29.0687 30.6365C28.6156 30.8189 27.9461 30.9957 27.1027 31.1499C25.4194 31.4577 23.0849 31.668 20.5011 31.668C17.9175 31.668 15.583 31.4577 13.8996 31.1499C13.0562 30.9957 12.3867 30.8189 11.9336 30.6365C11.7057 30.5447 11.5462 30.4569 11.4481 30.3789C11.3759 30.3215 11.3574 30.2864 11.3528 30.2752Z" fill="#DDDDDD" stroke="black" stroke-width="0.5"/>
<path d="M1.48201 11.6924H4.29232C3.61715 13.8166 3.58853 16.0948 4.19996 18.2257H1.48201C0.969296 18.2257 0.548828 17.8052 0.548828 17.2925V12.6256C0.548828 12.1129 0.969296 11.6924 1.48201 11.6924Z" fill="#BFC0C1" stroke="black" stroke-width="0.5"/>
<path d="M2.4482 16.8145V13.1067C2.4482 12.5897 2.80402 12.1667 3.23897 12.1667H1.88061C1.44566 12.1667 1.08984 12.5897 1.08984 13.1067V16.8145C1.08984 17.3315 1.44566 17.7545 1.88061 17.7545H3.2389C2.80403 17.7545 2.4482 17.3315 2.4482 16.8145Z" fill="#989DA0"/>
<path d="M39.518 18.2258L36.7077 18.2258C37.3828 16.1016 37.4115 13.8234 36.8 11.6925L39.518 11.6925C40.0307 11.6925 40.4512 12.113 40.4512 12.6257L40.4512 17.2927C40.4512 17.8054 40.0307 18.2258 39.518 18.2258Z" fill="#BFC0C1" stroke="black" stroke-width="0.5"/>
<path d="M38.5518 13.1037L38.5518 16.8115C38.5518 17.3285 38.196 17.7515 37.761 17.7515L39.1194 17.7515C39.5543 17.7515 39.9102 17.3285 39.9102 16.8115L39.9102 13.1037C39.9102 12.5867 39.5543 12.1637 39.1194 12.1637L37.7611 12.1637C38.196 12.1637 38.5518 12.5867 38.5518 13.1037Z" fill="#989DA0"/>
<path d="M16.2289 29.7036C10.5735 30.0034 11.398 30.6916 16.6322 30.9931C14.241 30.6262 13.7484 30.0839 16.2289 29.7036Z" fill="#BFC0C1"/>
<path d="M26.4338 4.25C32.4072 4.25 37.2955 9.13837 37.2955 15.1117C37.2955 21.089 32.4031 25.9733 26.434 25.9734H14.5648C8.59149 25.9734 3.70312 21.085 3.70312 15.1117C3.70312 9.13428 8.59549 4.25 14.5647 4.25H26.4338Z" fill="#DDDDDD" stroke="black" stroke-width="0.5"/>
<path d="M6.5895 15.1754C6.5895 9.50175 11.4949 4.85962 17.4903 4.85962H15.4965C9.51101 4.85962 4.5957 9.49233 4.5957 15.1754C4.5957 20.8491 9.50115 25.4912 15.4966 25.4912H17.4904C11.4949 25.4911 6.5895 20.849 6.5895 15.1754Z" fill="#BFC0C1"/>
<path d="M25.9411 7.32227C24.6337 7.32227 16.7096 7.32227 15.057 7.32227C10.7728 7.32227 7.26758 10.8276 7.26758 15.1117C7.26758 19.396 10.7729 22.9012 15.057 22.9012C16.6885 22.9012 24.6252 22.9012 25.9411 22.9012C30.2253 22.9012 33.7305 19.396 33.7305 15.1117C33.7305 10.8276 30.2253 7.32227 25.9411 7.32227Z" fill="#585A60"/>
<path d="M9.33125 15.1117C9.33125 10.8275 12.8366 7.32227 17.1207 7.32227H15.0297C10.7455 7.32227 7.24023 10.8275 7.24023 15.1117C7.24023 19.396 10.7455 22.9012 15.0297 22.9012H17.1207C12.8365 22.9012 9.33125 19.3959 9.33125 15.1117Z" fill="#414356"/>
<path d="M15.1689 17.7198C16.6935 17.7198 17.9295 16.4838 17.9295 14.9591C17.9295 13.4345 16.6935 12.1985 15.1689 12.1985C13.6442 12.1985 12.4082 13.4345 12.4082 14.9591C12.4082 16.4838 13.6442 17.7198 15.1689 17.7198Z" fill="#6EDCF9"/>
<path d="M25.829 17.7198C27.3537 17.7198 28.5897 16.4838 28.5897 14.9591C28.5897 13.4345 27.3537 12.1985 25.829 12.1985C24.3043 12.1985 23.0684 13.4345 23.0684 14.9591C23.0684 16.4838 24.3043 17.7198 25.829 17.7198Z" fill="#6EDCF9"/>
<path d="M14.4424 14.9601C14.4424 13.7944 15.1653 12.7982 16.187 12.3934C15.8724 12.2687 15.5298 12.1995 15.1708 12.1995C13.6461 12.1995 12.4102 13.4355 12.4102 14.9601C12.4102 16.4848 13.6462 17.7209 15.1708 17.7209C15.5298 17.7209 15.8724 17.6516 16.187 17.527C15.1653 17.1221 14.4424 16.1259 14.4424 14.9601Z" fill="#52C7E2"/>
<path d="M26.8491 12.3924C26.5345 12.2677 26.1919 12.1985 25.8329 12.1985C24.3082 12.1985 23.0723 13.4345 23.0723 14.9591C23.0723 16.9056 25.0385 18.2434 26.8492 17.5259C24.5277 16.6062 24.5286 13.3119 26.8491 12.3924Z" fill="#52C7E2"/>
<path d="M10.9924 30.6314C11.098 30.7531 11.2509 30.8502 11.4149 30.9307C11.844 31.1415 12.5301 31.3236 13.3917 31.4747C15.1252 31.7786 17.6572 31.9708 20.4996 31.9708C23.1038 31.9708 25.467 31.8085 27.184 31.5444C28.0406 31.4126 28.7476 31.2538 29.2459 31.0726C29.4936 30.9825 29.7046 30.8816 29.8584 30.766C29.9101 30.7271 29.9612 30.682 30.0058 30.6305C32.2348 32.9797 33.6025 36.1532 33.6025 39.6469C33.6025 46.8835 27.7361 52.7499 20.4995 52.7499C13.2628 52.7499 7.39648 46.8835 7.39648 39.6469C7.39648 36.1536 8.76388 32.9805 10.9924 30.6314Z" fill="#DDDDDD" stroke="black" stroke-width="0.5"/>
<path d="M12.7134 31.5073C12.2109 31.3677 11.3183 31.0603 11.6566 30.6492C9.42302 32.9237 8.03516 36.1012 8.03516 39.6179C8.03516 46.5339 13.4001 52.1404 20.018 52.1404C20.3248 52.1404 20.6289 52.1282 20.9299 52.1046C11.1685 51.337 6.39566 39.2642 12.7134 31.5073Z" fill="#BFC0C1"/>
<path d="M16.3496 34.9326C16.4005 35.4656 16.4168 35.3647 19.6639 38.8272C20.124 39.2873 20.877 39.2873 21.3372 38.8272C24.5851 35.3639 24.6005 35.4659 24.6516 34.9326C21.973 35.172 19.0967 35.1781 16.3496 34.9326Z" fill="#F7AC16"/>
<path d="M18.6423 35.0779C17.86 35.0476 17.094 34.9991 16.3496 34.9326C16.4005 35.4656 16.4168 35.3647 19.6639 38.8272C20.124 39.2873 20.877 39.2873 21.3372 38.8272L21.6349 38.5097C18.6905 35.3701 18.7358 35.4987 18.6423 35.0779Z" fill="#EF9614"/>
<path d="M8.9751 33.4109C9.52532 32.3962 10.2052 31.4622 10.9931 30.6315C11.0987 30.7531 11.2516 30.8502 11.4156 30.9307C11.8448 31.1415 12.5309 31.3236 13.3924 31.4747C15.1259 31.7786 17.6579 31.9708 20.5003 31.9708C23.1045 31.9708 25.4677 31.8085 27.1848 31.5444C28.0414 31.4126 28.7483 31.2538 29.2467 31.0726C29.4944 30.9825 29.7054 30.8816 29.8591 30.766C29.9109 30.7271 29.9619 30.682 30.0065 30.6305C30.7948 31.4615 31.475 32.3959 32.0255 33.4109C28.8822 34.5032 24.697 35.0536 20.4991 35.0535C16.3013 35.0533 12.1169 34.5027 8.9751 33.4109Z" fill="#989DA0" stroke="black" stroke-width="0.5"/>
<path d="M11.9242 31.1311C11.2656 31.9504 10.7001 32.8476 10.2433 33.8066C9.79854 33.6822 9.3745 33.55 8.97322 33.4107C9.53253 32.3799 10.2199 31.4452 10.9924 30.6303C11.0781 30.7287 11.1902 30.8059 11.2951 30.866C11.4811 30.9725 11.7101 31.0613 11.9242 31.1311Z" fill="#838384" stroke="black" stroke-width="0.5"/>
<path d="M57.1113 18.5632H77.9303C78.928 18.5632 79.7369 19.3721 79.7369 20.3699V36.0797C79.7369 37.0775 78.928 37.8863 77.9303 37.8863H73.6266C73.2275 37.8863 72.904 38.2099 72.904 38.609V42.0359C72.904 42.3578 72.5147 42.519 72.2872 42.2914L68.0938 38.0981C67.9583 37.9626 67.7745 37.8864 67.5828 37.8864H57.1113C56.1136 37.8864 55.3047 37.0775 55.3047 36.0798V20.3699C55.3047 19.3721 56.1136 18.5632 57.1113 18.5632Z" fill="#95C7F8"/>
<path d="M78.6523 18.5632H76.4844C77.4821 18.5632 78.291 19.3721 78.291 20.3699V36.0797C78.291 37.0775 77.4821 37.8863 76.4844 37.8863H78.6523C79.6501 37.8863 80.459 37.0775 80.459 36.0797V20.3699C80.459 19.3721 79.6501 18.5632 78.6523 18.5632Z" fill="#75B5F8"/>
<path d="M67.1685 6.60205H46.3496C45.3518 6.60205 44.543 7.41092 44.543 8.40869V24.1185C44.543 25.1163 45.3518 25.9252 46.3496 25.9252H51.3759C51.775 25.9252 52.0986 26.2487 52.0986 26.6478V30.0747C52.0986 30.3966 52.4878 30.5578 52.7153 30.3303L56.9087 26.1369C57.0442 26.0014 57.228 25.9252 57.4197 25.9252H67.1685C68.1662 25.9252 68.9751 25.1164 68.9751 24.1186V8.40869C68.9752 7.41092 68.1663 6.60205 67.1685 6.60205Z" fill="#FFE187"/>
<path d="M67.8906 6.60205H65.7227C66.7204 6.60205 67.5293 7.41092 67.5293 8.40869V24.1185C67.5293 25.1163 66.7204 25.9252 65.7227 25.9252H67.8906C68.8884 25.9252 69.6973 25.1163 69.6973 24.1185V8.40869C69.6973 7.41092 68.8884 6.60205 67.8906 6.60205Z" fill="#FFD26F"/>
<path d="M47.3789 37.2375C47.3789 37.9223 47.8339 38.5008 48.458 38.6874C48.5955 38.7284 48.7411 38.6782 48.8919 38.6782C49.7275 38.6782 50.3325 38.073 50.3325 37.2375C50.3325 36.4019 49.7275 35.7968 48.8919 35.7968C48.7411 35.7968 48.5955 35.7466 48.458 35.7876C47.8339 35.9741 47.3789 36.5526 47.3789 37.2375Z" fill="#ADE4A4"/>
<path d="M48.8926 35.7246C48.7418 35.7246 48.5964 35.7474 48.459 35.7884C49.0831 35.9749 49.5383 36.5528 49.5383 37.2376C49.5383 37.9224 49.0831 38.5002 48.459 38.6867C48.5964 38.7278 48.7418 38.7505 48.8926 38.7505C49.7282 38.7505 50.4055 38.0731 50.4055 37.2376C50.4056 36.402 49.7282 35.7246 48.8926 35.7246Z" fill="#8BD5A7"/>
<path d="M74.5977 11.7624C74.5977 12.4472 75.0526 13.0257 75.6768 13.2122C75.8142 13.2533 75.9599 13.2031 76.1106 13.2031C76.9462 13.2031 77.5513 12.5979 77.5513 11.7624C77.5513 10.9269 76.9461 10.3217 76.1106 10.3217C75.9599 10.3217 75.8142 10.2715 75.6768 10.3125C75.0526 10.499 74.5977 11.0775 74.5977 11.7624Z" fill="#ADE4A4"/>
<path d="M76.1094 10.2495C75.9586 10.2495 75.8132 10.2723 75.6758 10.3133C76.2999 10.4998 76.7551 11.0777 76.7551 11.7625C76.7551 12.4473 76.2999 13.0251 75.6758 13.2116C75.8132 13.2527 75.9586 13.2754 76.1094 13.2754C76.945 13.2754 77.6223 12.598 77.6223 11.7625C77.6223 10.9269 76.945 10.2495 76.1094 10.2495Z" fill="#8BD5A7"/>
<path d="M75.3085 27.6829H60.4502C60.1509 27.6829 59.9082 27.9255 59.9082 28.2249C59.9082 28.5242 60.1509 28.7668 60.4502 28.7668H75.3085C75.6079 28.7668 75.8505 28.5242 75.8505 28.2249C75.8505 27.9255 75.6079 27.6829 75.3085 27.6829Z" fill="black"/>
<path d="M75.3085 32.1553H60.4502C60.1509 32.1553 59.9082 32.3979 59.9082 32.6973C59.9082 32.9966 60.1509 33.2393 60.4502 33.2393H75.3085C75.6079 33.2393 75.8505 32.9966 75.8505 32.6973C75.8505 32.3979 75.6079 32.1553 75.3085 32.1553Z" fill="black"/>
<path d="M50.9688 16.2639C50.9688 15.9646 50.7261 15.7219 50.4268 15.7219C50.1274 15.7219 49.8848 15.9646 49.8848 16.2639C49.8848 16.5632 50.1274 16.8059 50.4268 16.8059C50.7261 16.8059 50.9688 16.5632 50.9688 16.2639Z" fill="black"/>
<path d="M57.6602 16.2639C57.6602 15.9646 57.4175 15.7219 57.1182 15.7219C56.8188 15.7219 56.5762 15.9646 56.5762 16.2639C56.5762 16.5632 56.8188 16.8059 57.1182 16.8059C57.4176 16.8059 57.6602 16.5632 57.6602 16.2639Z" fill="black"/>
<path d="M64.3535 16.2639C64.3535 15.9646 64.1108 15.7219 63.8115 15.7219C63.5122 15.7219 63.2695 15.9646 63.2695 16.2639C63.2695 16.5632 63.5122 16.8059 63.8115 16.8059C64.1108 16.8059 64.3535 16.5632 64.3535 16.2639Z" fill="black"/>
<path d="M48.8909 35.1829C47.7578 35.1829 46.8359 36.1047 46.8359 37.2379C46.8359 38.371 47.7578 39.2928 48.8909 39.2928C50.024 39.2928 50.9459 38.371 50.9459 37.2379C50.9459 36.1048 50.0241 35.1829 48.8909 35.1829ZM48.8909 38.2088C48.3555 38.2088 47.9199 37.7733 47.9199 37.2379C47.9199 36.7025 48.3555 36.2668 48.8909 36.2668C49.4263 36.2668 49.8619 36.7025 49.8619 37.2379C49.8619 37.7732 49.4263 38.2088 48.8909 38.2088Z" fill="black"/>
<path d="M76.1096 13.8177C77.2428 13.8177 78.1646 12.8958 78.1646 11.7627C78.1646 10.6296 77.2428 9.70776 76.1096 9.70776C74.9765 9.70776 74.0547 10.6296 74.0547 11.7627C74.0547 12.8958 74.9765 13.8177 76.1096 13.8177ZM76.1096 10.7917C76.645 10.7917 77.0806 11.2273 77.0806 11.7627C77.0806 12.2981 76.645 12.7337 76.1096 12.7337C75.5742 12.7337 75.1387 12.2981 75.1387 11.7627C75.1387 11.2273 75.5743 10.7917 76.1096 10.7917Z" fill="black"/>
<path d="M60.6338 37.3445H57.1098C56.4125 37.3445 55.8451 36.7771 55.8451 36.0798V27.9733C55.8451 27.971 55.8448 27.9688 55.8448 27.9665L57.2909 26.5203C57.3251 26.4862 57.3704 26.4674 57.4187 26.4674H67.8901C69.126 26.4674 70.1412 25.5077 70.2315 24.2945H75.3097C75.609 24.2945 75.8516 24.0518 75.8516 23.7525C75.8516 23.4532 75.609 23.2105 75.3097 23.2105H70.2388V19.1053H72.4885C72.7878 19.1053 73.0305 18.8627 73.0305 18.5633C73.0305 18.264 72.7878 18.0213 72.4885 18.0213H70.2388V8.40894C70.2388 7.11394 69.1851 6.0603 67.8901 6.0603H46.3486C45.0536 6.0603 44 7.11394 44 8.40894V11.0638C44 11.3631 44.2427 11.6058 44.542 11.6058C44.8413 11.6058 45.084 11.3631 45.084 11.0638V8.40894C45.084 7.71164 45.6513 7.14429 46.3486 7.14429H67.8902C68.5875 7.14429 69.1549 7.71164 69.1549 8.40894V24.1188C69.1549 24.8161 68.5875 25.3834 67.8902 25.3834H57.4187C57.0809 25.3834 56.7633 25.5149 56.5245 25.7538L52.6395 29.6388V26.6481C52.6395 25.9508 52.0721 25.3834 51.3749 25.3834H46.3486C45.6513 25.3834 45.084 24.8161 45.084 24.1188V13.4258C45.084 13.1265 44.8413 12.8838 44.542 12.8838C44.2427 12.8838 44 13.1265 44 13.4258V24.1188C44 25.4138 45.0536 26.4674 46.3486 26.4674H51.3749C51.4745 26.4674 51.5556 26.5485 51.5556 26.6481V30.075C51.5556 30.4416 51.7745 30.7692 52.1132 30.9095C52.2256 30.9561 52.3433 30.9787 52.4598 30.9787C52.6943 30.9786 52.9244 30.8869 53.0976 30.7136L54.7611 29.0501V36.0797C54.7611 37.3747 55.8148 38.4284 57.1098 38.4284H60.6338C60.9331 38.4284 61.1758 38.1857 61.1758 37.8864C61.1758 37.5871 60.9331 37.3445 60.6338 37.3445Z" fill="black"/>
<path d="M78.6525 18.0215H74.8519C74.5526 18.0215 74.3099 18.2642 74.3099 18.5635C74.3099 18.8628 74.5526 19.1055 74.8519 19.1055H78.6525C79.3498 19.1055 79.9172 19.6728 79.9172 20.3701V36.0799C79.9172 36.7772 79.3498 37.3446 78.6525 37.3446H73.6263C72.929 37.3446 72.3616 37.9119 72.3616 38.6092V41.6L68.4767 37.715C68.2378 37.4761 67.9202 37.3446 67.5824 37.3446H62.9971C62.6977 37.3446 62.4551 37.5873 62.4551 37.8866C62.4551 38.1859 62.6977 38.4286 62.9971 38.4286H67.5824C67.6307 38.4286 67.676 38.4474 67.7102 38.4815L71.9035 42.6748C72.0767 42.8481 72.3068 42.9399 72.5413 42.9399C72.6578 42.9399 72.7755 42.9173 72.8879 42.8707C73.2267 42.7305 73.4456 42.4028 73.4456 42.0361V38.6092C73.4456 38.5097 73.5266 38.4286 73.6263 38.4286H78.6525C79.9475 38.4286 81.0012 37.3749 81.0012 36.0799V20.3701C81.0012 19.0751 79.9475 18.0215 78.6525 18.0215Z" fill="black"/>
</svg>
