<svg width="26" height="26" viewBox="0 0 26 26" fill="none" xmlns="http://www.w3.org/2000/svg">
<path d="M7.59662 9.34375C7.45323 9.3434 7.31328 9.38769 7.1962 9.47047C7.07912 9.55326 6.99071 9.67044 6.94324 9.80575C6.89577 9.94106 6.89159 10.0878 6.93129 10.2256C6.97099 10.3634 7.05259 10.4854 7.16478 10.5747L7.9009 11.1638C7.79405 10.5627 7.7351 9.95413 7.72459 9.34375H7.59662Z" fill="#FFB800"/>
<path d="M1.21875 23.1561V24.7811H3.65625V19.1772C2.92339 19.5522 2.30812 20.122 1.87809 20.8239C1.44806 21.5259 1.21991 22.3328 1.21875 23.1561Z" fill="#FFB800"/>
<path d="M7.07975 3.76431C7.18725 3.99327 7.24634 4.24194 7.25333 4.49478C7.26032 4.74762 7.21506 4.99918 7.12038 5.23372C7.06589 5.3704 7.04087 5.51704 7.04696 5.66406C7.05305 5.81107 7.09012 5.95514 7.15572 6.08685L7.83213 7.43925C7.85273 7.41671 7.87591 7.39667 7.90119 7.37953L10.6178 5.56847C11.2966 5.11549 12.0946 4.87415 12.9107 4.875C13.6652 4.87391 14.3971 4.61714 14.987 4.1466L15.9965 3.33856C16.0406 3.30358 16.0914 3.27806 16.1458 3.26359C16.2002 3.24913 16.257 3.24602 16.3126 3.25447C16.3682 3.26312 16.4214 3.28322 16.4688 3.3135C16.5162 3.34378 16.5568 3.38358 16.588 3.43038L17.5309 4.84453C17.9101 5.41391 18.1531 6.06293 18.2411 6.74132L18.5945 5.76997C18.7809 5.25757 18.841 4.7078 18.7697 4.16723C18.6985 3.62666 18.4979 3.11125 18.1851 2.66466C17.8723 2.21807 17.4565 1.85348 16.9728 1.60178C16.4891 1.35008 15.9519 1.21869 15.4067 1.21875H11.958C9.83073 1.21812 7.73609 1.74179 5.85938 2.74341L5.98125 2.78403C6.22201 2.86293 6.44387 2.99073 6.6329 3.15942C6.82193 3.32811 6.97407 3.53405 7.07975 3.76431Z" fill="#FFB800"/>
<path d="M11.375 10.9688C11.4827 10.9688 11.5861 10.9259 11.6623 10.8498C11.7384 10.7736 11.7812 10.6702 11.7812 10.5625V9.34375H10.1562V10.5625C10.1562 10.6702 10.1991 10.7736 10.2752 10.8498C10.3514 10.9259 10.4548 10.9688 10.5625 10.9688H11.375Z" fill="#FFB800"/>
<path d="M15.4375 10.9688C15.5452 10.9688 15.6486 10.9259 15.7248 10.8498C15.8009 10.7736 15.8438 10.6702 15.8438 10.5625V9.34375H14.2188V10.5625C14.2188 10.6702 14.2616 10.7736 14.3377 10.8498C14.4139 10.9259 14.5173 10.9688 14.625 10.9688H15.4375Z" fill="#FFB800"/>
<path d="M17.4687 7.3232C17.4696 6.60131 17.2559 5.89546 16.8549 5.2952L16.1578 4.24951L15.4944 4.78089C14.7603 5.36664 13.8493 5.68616 12.9102 5.68723C12.2542 5.68653 11.6127 5.88066 11.0671 6.24501L8.53125 7.93582V8.53098H12.1875C12.2952 8.53098 12.3986 8.57378 12.4748 8.64997C12.5509 8.72615 12.5937 8.82949 12.5937 8.93723V9.34348H13.4062V8.93723C13.4062 8.82949 13.449 8.72615 13.5252 8.64997C13.6014 8.57378 13.7048 8.53098 13.8125 8.53098H17.4687V7.3232Z" fill="#FFB800"/>
<path d="M8.53711 9.34375C8.56898 11.2057 9.08881 13.0268 10.0447 14.625H15.9544C16.9102 13.0267 17.4299 11.2057 17.4616 9.34375H16.656V10.5625C16.656 10.8857 16.5276 11.1957 16.2991 11.4243C16.0705 11.6528 15.7605 11.7812 15.4373 11.7812H14.6248C14.3015 11.7812 13.9915 11.6528 13.763 11.4243C13.5344 11.1957 13.406 10.8857 13.406 10.5625V10.1562H12.5935V10.5625C12.5935 10.8857 12.4651 11.1957 12.2366 11.4243C12.008 11.6528 11.698 11.7812 11.3748 11.7812H10.5623C10.239 11.7812 9.92904 11.6528 9.70048 11.4243C9.47192 11.1957 9.34352 10.8857 9.34352 10.5625V9.34375H8.53711Z" fill="#FFB800"/>
<path d="M22.3438 19.1772V24.7811H24.7812V23.1561C24.78 22.3329 24.5519 21.5259 24.1219 20.824C23.6918 20.122 23.0766 19.5522 22.3438 19.1772Z" fill="#FFB800"/>
<path d="M20.3125 15.4375H5.6875C5.36427 15.4375 5.05427 15.5659 4.82571 15.7945C4.59715 16.023 4.46875 16.333 4.46875 16.6562V24.7812H21.5312V16.6562C21.5312 16.333 21.4028 16.023 21.1743 15.7945C20.9457 15.5659 20.6357 15.4375 20.3125 15.4375ZM13.8938 16.0063L14.5437 16.4937L12.1062 19.7437L11.4563 19.2563L13.8938 16.0063ZM10.8501 19.2128L10.2753 19.7876L8.65028 18.1626C8.61251 18.1249 8.58255 18.0801 8.5621 18.0308C8.54166 17.9815 8.53113 17.9286 8.53113 17.8752C8.53113 17.8218 8.54166 17.769 8.5621 17.7196C8.58255 17.6703 8.61251 17.6255 8.65028 17.5878L10.2753 15.9628L10.8501 16.5376L9.51194 17.875L10.8501 19.2128ZM13 23.5625C12.6786 23.5625 12.3644 23.4672 12.0972 23.2886C11.83 23.1101 11.6217 22.8563 11.4987 22.5594C11.3757 22.2624 11.3435 21.9357 11.4062 21.6205C11.4689 21.3053 11.6237 21.0157 11.851 20.7885C12.0782 20.5612 12.3678 20.4064 12.683 20.3437C12.9982 20.281 13.3249 20.3132 13.6219 20.4362C13.9188 20.5592 14.1726 20.7675 14.3511 21.0347C14.5297 21.3019 14.625 21.6161 14.625 21.9375C14.625 22.3685 14.4538 22.7818 14.149 23.0865C13.8443 23.3913 13.431 23.5625 13 23.5625ZM17.3497 18.1622L15.7247 19.7872L15.1499 19.2124L16.4877 17.875L15.1499 16.5372L15.7247 15.9624L17.3497 17.5874C17.3875 17.6251 17.4175 17.6699 17.4379 17.7192C17.4583 17.7685 17.4689 17.8214 17.4689 17.8748C17.4689 17.9282 17.4583 17.981 17.4379 18.0304C17.4175 18.0797 17.3875 18.1245 17.3497 18.1622Z" fill="#FFB800"/>
<path d="M13 21.125C12.8393 21.125 12.6822 21.1727 12.5486 21.2619C12.415 21.3512 12.3108 21.4781 12.2493 21.6266C12.1879 21.775 12.1718 21.9384 12.2031 22.096C12.2345 22.2536 12.3118 22.3984 12.4255 22.512C12.5391 22.6257 12.6839 22.703 12.8415 22.7344C12.9991 22.7657 13.1625 22.7497 13.3109 22.6882C13.4594 22.6267 13.5863 22.5225 13.6756 22.3889C13.7649 22.2553 13.8125 22.0982 13.8125 21.9375C13.8125 21.722 13.7269 21.5153 13.5745 21.363C13.4222 21.2106 13.2155 21.125 13 21.125Z" fill="#FFB800"/>
<path d="M18.2744 9.34375C18.2641 9.95416 18.205 10.5628 18.0977 11.1637L18.8342 10.5747C18.9463 10.4854 19.0279 10.3635 19.0676 10.2258C19.1073 10.0881 19.1032 9.9414 19.0559 9.80613C19.0085 9.67086 18.9202 9.55368 18.8033 9.47083C18.6863 9.38798 18.5465 9.34357 18.4032 9.34375H18.2744Z" fill="#FFB800"/>
</svg>
