<svg width="40" height="40" viewBox="0 0 40 40" fill="none" xmlns="http://www.w3.org/2000/svg">
<circle cx="20" cy="20" r="20" fill="#FFD600"/>
<path d="M9.16602 21.9791C9.16602 19.7355 10.9849 17.9166 13.2285 17.9166C13.7463 17.9166 14.166 18.3364 14.166 18.8541V30.7708C14.166 31.4957 13.5784 32.0833 12.8535 32.0833H10.4785C9.75364 32.0833 9.16602 31.4957 9.16602 30.7708V21.9791Z" fill="#262626"/>
<path d="M17 19.0625C17 16.8188 18.8188 15 21.0625 15C21.5803 15 22 15.4197 22 15.9375V30.6875C22 31.4124 21.4124 32 20.6875 32H18.3125C17.5876 32 17 31.4124 17 30.6875V19.0625Z" fill="#262626"/>
<path d="M25 10.3125C25 8.06885 26.8188 6.25 29.0625 6.25C29.5803 6.25 30 6.66973 30 7.1875V30.7708C30 31.4957 29.4124 32.0833 28.6875 32.0833H26.3125C25.5876 32.0833 25 31.4957 25 30.7708V10.3125Z" fill="#262626"/>
<rect width="6.79322" height="4.3083" rx="0.875" transform="matrix(0.920714 -0.390239 0 1 20.416 26.4009)" fill="#262626"/>
<rect width="6.79322" height="4.3083" rx="0.875" transform="matrix(0.920714 -0.390239 0 1 9.58203 27.3583)" fill="#262626"/>
<rect width="13.0334" height="4.3083" rx="2.15415" transform="matrix(0.920714 -0.390239 0 1 10 18.8146)" fill="#262626"/>
</svg>
