<svg width="30" height="24" viewBox="0 0 30 24" fill="none" xmlns="http://www.w3.org/2000/svg">
<path d="M26.8881 8.97559V9.725C24.5555 9.23574 23.499 7.67422 23.417 7.54824H23.4164C23.4164 7.54824 23.417 7.54824 23.4164 7.54766C23.3461 7.43574 23.2518 7.33789 23.1322 7.26348C22.7197 7.00801 22.1777 7.13516 21.9223 7.54824C21.9111 7.56582 20.8617 9.21875 18.4512 9.72559V8.97559C18.4512 6.6459 20.3396 4.75684 22.6693 4.75684C24.9997 4.75684 26.8881 6.64689 26.8881 8.97559Z" fill="#FFB800"/>
<path d="M22.6693 9.37695C23.4346 10.1434 24.8062 11.1711 26.8881 11.5133V12.1648H26.884C26.7902 14.4119 24.9398 16.2037 22.6693 16.2037C20.4 16.2037 18.549 14.4119 18.4553 12.1648H18.4512V11.5133C20.5324 11.1711 21.9047 10.1434 22.6693 9.37695Z" fill="#FFB800"/>
<path d="M23.4173 7.54912H23.416C23.416 7.54912 23.4173 7.54912 23.416 7.54785L23.4173 7.54912Z" fill="#FFB800"/>
<path d="M25.565 3.74434C24.6891 3.25742 23.6994 2.99902 22.6699 2.99902C21.6205 2.99902 20.6332 3.2709 19.7754 3.74844C19.7895 2.1623 21.0797 0.880859 22.6699 0.880859C24.259 0.880859 25.5486 2.15996 25.565 3.74434Z" fill="#FFB800"/>
<path d="M11.89 5.4207V7.16211H4.62383C2.87363 7.16211 1.45508 5.74355 1.45508 3.99336V3.01602C1.45508 2.59414 1.79727 2.25195 2.21914 2.25195H8.72129C10.4715 2.25195 11.89 3.67051 11.89 5.4207Z" fill="#FFB800"/>
<path d="M3.4512 8.91992H11.8881C11.8881 10.758 11.8875 10.4381 11.884 11.5789C11.7903 13.826 9.93987 15.6178 7.66994 15.6178C5.40002 15.6178 3.54905 13.826 3.4553 11.5789C3.45061 10.3508 3.4512 10.7574 3.4512 8.91992Z" fill="#FFB800"/>
<path d="M9.42773 17.1129V18.0926C9.42773 19.0635 8.64023 19.8504 7.66992 19.8504C6.69902 19.8504 5.91211 19.0635 5.91211 18.0926V17.1123C6.47519 17.2857 7.0664 17.3754 7.67051 17.3754C8.27402 17.3754 8.86523 17.2857 9.42773 17.1129Z" fill="#FFB800"/>
<path d="M24.4277 17.6988V18.0926C24.4277 19.0635 23.6402 19.8504 22.6699 19.8504C21.699 19.8504 20.9121 19.0635 20.9121 18.0926V17.6982C22.051 18.049 23.2868 18.049 24.4277 17.6988Z" fill="#FFB800"/>
<path d="M15.3404 22.2881V23.0013C15.3404 23.4536 14.9737 23.8203 14.5213 23.8203H0.849023C0.380273 23.8203 0 23.4265 0 22.9414V22.2881C0 20.3211 1.01426 18.5393 2.58516 17.7436L4.1543 16.8975V18.0394C4.1543 19.9691 5.68687 21.5791 7.61625 21.608C9.57961 21.6374 11.1855 20.0489 11.1855 18.0928V16.9098L12.7529 17.7424C14.3249 18.5375 15.3404 20.3205 15.3404 22.2881Z" fill="#FFB800"/>
<path d="M29.9996 22.9413C29.9996 23.4265 29.6363 23.8202 29.1881 23.8202H16.9648C17.1267 23.3357 17.0979 23.0304 17.0979 22.288C17.0979 21.1771 16.8506 20.0896 16.3789 19.1157C17.3415 17.8242 18.4478 17.5069 19.1539 17.2554V18.0927C19.1539 20.031 20.7313 21.6083 22.6695 21.6083C24.6084 21.6083 26.1852 20.031 26.1852 18.0927V17.2554L26.7336 17.4505C28.6285 18.1243 29.9398 20.004 29.9973 22.1263C30.0003 22.2214 29.9996 22.2365 29.9996 22.9413Z" fill="#FFB800"/>
</svg>
