<svg width="29" height="30" viewBox="0 0 29 30" fill="none" xmlns="http://www.w3.org/2000/svg">
<path d="M23.4199 28.6855C23.1291 28.6855 22.8926 28.9227 22.8926 29.2143C22.8926 29.505 23.1291 29.7415 23.4199 29.7415C23.7106 29.7415 23.9471 29.505 23.9471 29.2143C23.9471 28.9227 23.7106 28.6855 23.4199 28.6855Z" fill="#FFB800"/>
<path d="M24.1699 1.66162C23.8791 1.66162 23.6426 1.89904 23.6426 2.19089C23.6426 2.48163 23.8791 2.71818 24.1699 2.71818C24.4607 2.71818 24.6971 2.48163 24.6971 2.19089C24.6972 1.89904 24.4607 1.66162 24.1699 1.66162Z" fill="#FFB800"/>
<path d="M23.285 24.9608V6.62106H19.2631C19.0711 6.62106 18.9491 6.41311 18.9491 6.2211V2.34375H6.46875V24.4092L9.07949 21.6658C9.14412 21.598 9.22381 21.5598 9.31738 21.5587C9.41154 21.5593 9.50236 21.5953 9.56857 21.6615L11.0717 23.1649L14.5495 19.6775C14.6147 19.6123 14.7034 19.5702 14.7956 19.5702H17.4815L20.6646 14.0635L19.9799 14.2452C19.7945 14.295 19.6038 14.1885 19.554 14.0031C19.5042 13.8175 19.6143 13.6287 19.7998 13.579L21.2954 13.1791C21.2976 13.1785 21.2999 13.1789 21.3022 13.1784C21.3219 13.1735 21.342 13.1701 21.3624 13.1687C21.3707 13.1682 21.3789 13.1694 21.3872 13.1695C21.4016 13.1696 21.416 13.1693 21.4304 13.1711C21.4394 13.1723 21.4481 13.1752 21.4569 13.1771C21.4703 13.1799 21.4838 13.1821 21.4971 13.1867C21.5091 13.1908 21.5203 13.197 21.532 13.2024C21.541 13.2067 21.5504 13.2096 21.5592 13.2147C21.5596 13.2149 21.5599 13.2152 21.5602 13.2154C21.5606 13.2156 21.561 13.2157 21.5613 13.216C21.5731 13.2229 21.5834 13.2318 21.5943 13.2399C21.6018 13.2456 21.6101 13.2504 21.6171 13.2565C21.6202 13.2593 21.6225 13.2627 21.6255 13.2656C21.6391 13.2787 21.6523 13.2921 21.6635 13.3069C21.6644 13.3081 21.6649 13.3095 21.6658 13.3108C21.6783 13.3279 21.6894 13.3458 21.6985 13.3646C21.7013 13.3704 21.7027 13.3768 21.7052 13.3826C21.7114 13.3976 21.7177 13.4127 21.7218 13.4283C21.7219 13.4291 21.7223 13.4297 21.7225 13.4305L22.0776 14.8311C22.1248 15.0172 22.0121 15.2066 21.826 15.2538C21.7973 15.2611 21.7686 15.2651 21.7403 15.2651C21.585 15.2652 21.4435 15.1613 21.4035 15.0039L21.2588 14.4351L17.9834 20.1011C17.9212 20.2087 17.8065 20.2732 17.6823 20.2732H14.9396L11.3183 23.8991C11.1825 24.0349 10.9626 24.0343 10.8267 23.8986L9.33004 22.4154L6.91927 24.9608H10.5703V24.5286C10.5703 24.3366 10.7299 24.1809 10.9218 24.1809C11.1139 24.1809 11.2734 24.3365 11.2734 24.5286V24.9608H12.1523V23.476C12.1523 23.284 12.3118 23.1283 12.5039 23.1283C12.6959 23.1283 12.8554 23.2839 12.8554 23.476V24.9608H13.7343V22.0547C13.7343 21.8627 13.8646 21.707 14.0566 21.707C14.2486 21.707 14.3788 21.8626 14.3788 22.0547V24.9608H15.2577V20.8496C15.2577 20.6576 15.4173 20.5019 15.6093 20.5019C15.8013 20.5019 15.9609 20.6576 15.9609 20.8496V24.9608H16.8398V20.811C16.8398 20.619 16.9993 20.4633 17.1913 20.4633C17.3833 20.4633 17.5429 20.6189 17.5429 20.811V24.9608H18.3632V19.8338C18.3632 19.6418 18.5227 19.4861 18.7147 19.4861C18.9068 19.4861 19.0663 19.6417 19.0663 19.8338V24.9608H19.9452V17.1738C19.9452 16.9818 20.1048 16.8261 20.2968 16.8261C20.4888 16.8261 20.6483 16.9818 20.6483 17.1738V24.9608H21.5272V16.0918C21.5272 15.8998 21.6575 15.7442 21.8495 15.7442C22.0415 15.7442 22.1718 15.8998 22.1718 16.0918V24.9608H23.285ZM15.4686 17.595C15.2988 17.7159 15.082 17.803 14.9062 17.8557V18.5127C14.9062 18.7047 14.7465 18.8604 14.5546 18.8604C14.3626 18.8604 14.2031 18.7048 14.2031 18.5127V17.9078C13.9101 17.8814 13.5962 17.7953 13.309 17.6488C13.138 17.5616 13.0662 17.3522 13.1535 17.1812C13.2407 17.0101 13.4493 16.9422 13.6205 17.0294C13.9455 17.1952 14.2495 17.2407 14.5047 17.2182C14.5072 17.2179 14.5096 17.2177 14.5122 17.2175C14.7387 17.1961 14.9266 17.121 15.0562 17.0287C15.2086 16.9201 15.2897 16.7832 15.2729 16.6625C15.2459 16.4695 14.9897 16.2689 14.5868 16.1259C13.4773 15.731 13.1632 15.089 13.2352 14.6198C13.3012 14.1896 13.6171 13.8745 14.2031 13.7665V13.1485C14.2031 12.9565 14.3626 12.8008 14.5546 12.8008C14.7465 12.8008 14.9062 12.9565 14.9062 13.1485V13.7403C15.082 13.7628 15.3508 13.8119 15.5912 13.8869C15.7745 13.9442 15.8709 14.1392 15.8137 14.3225C15.7566 14.5058 15.5597 14.6081 15.3765 14.5507C15.0774 14.4573 14.7998 14.4144 14.5545 14.4223C14.5537 14.4223 14.5526 14.4224 14.5519 14.4225C14.1642 14.4371 13.9389 14.5859 13.9174 14.7254C13.8926 14.8872 14.112 15.2193 14.8186 15.4709C15.724 15.7921 15.9275 16.295 15.9655 16.5662C16.019 16.9484 15.836 17.333 15.4686 17.595ZM16.5468 9.14444C16.5468 9.33645 16.3912 9.49213 16.1991 9.49213H7.51956C7.32755 9.49213 7.17187 9.33645 7.17187 9.14444V7.61328C7.17187 7.42127 7.32755 7.26559 7.51956 7.26559H16.1992C16.3912 7.26559 16.5469 7.42127 16.5469 7.61328V9.14444H16.5468ZM16.5468 6.44915C16.5468 6.64116 16.3912 6.79684 16.1991 6.79684H7.51956C7.32755 6.79684 7.17187 6.64116 7.17187 6.44915V3.39456C7.17187 3.20255 7.32755 3.04687 7.51956 3.04687H16.1992C16.3912 3.04687 16.5469 3.20255 16.5469 3.39456V6.44915H16.5468Z" fill="#FFB800"/>
<path d="M7.87695 7.96875H15.8456V8.84765H7.87695V7.96875Z" fill="#FFB800"/>
<path d="M7.87695 3.75H15.8456V6.09373H7.87695V3.75Z" fill="#FFB800"/>
<path d="M19.5957 2.81738V5.91767H22.6675L19.5957 2.81738Z" fill="#FFB800"/>
<path d="M20.7381 25.7426C20.5461 25.7426 20.4159 25.8982 20.4159 26.0903V26.8358H4.24414V4.21874H4.99138C5.18339 4.21874 5.33907 4.05914 5.33907 3.86718C5.33907 3.67517 5.18339 3.51562 4.99138 3.51562H3.87933C3.68738 3.51562 3.54102 3.7115 3.54102 3.90351V27.2028C3.54102 27.3948 3.68738 27.5389 3.87933 27.5389H20.7687C20.9607 27.5389 21.0604 27.3948 21.0604 27.2028V26.0903C21.0604 25.8982 20.9302 25.7426 20.7381 25.7426Z" fill="#FFB800"/>
<path d="M4.28121 1.23046C4.28121 1.03851 4.12553 0.8789 3.93352 0.8789H3.42206V0.347693C3.42206 0.155682 3.26251 0 3.0705 0C2.87855 0 2.71894 0.155682 2.71894 0.347693V0.8789H2.18363C1.99162 0.8789 1.83594 1.03851 1.83594 1.23046C1.83594 1.42247 1.99162 1.58202 2.18363 1.58202H2.71894V2.09758C2.71894 2.28959 2.87855 2.44527 3.0705 2.44527C3.26251 2.44527 3.42206 2.28959 3.42206 2.09758V1.58202H3.93352C4.12553 1.58202 4.28121 1.42247 4.28121 1.23046Z" fill="#FFB800"/>
<path d="M27.4325 6.89552L28.0622 6.26658C28.1981 6.13088 28.1982 5.91074 28.0626 5.77486C27.9269 5.63898 27.7067 5.63887 27.5708 5.77457L26.9405 6.4041L26.3102 5.77457C26.1744 5.63887 25.9542 5.63893 25.8185 5.77486C25.6828 5.91068 25.6829 6.13088 25.8188 6.26658L26.4485 6.89552L25.8188 7.52446C25.6829 7.66016 25.6828 7.8803 25.8185 8.01617C25.9542 8.15211 26.1744 8.15223 26.3102 8.01647L26.9405 7.38694L27.5708 8.01647C27.6387 8.08426 27.7277 8.11813 27.8165 8.11813C27.9056 8.11813 27.9946 8.08414 28.0625 8.01612C28.1982 7.8803 28.1981 7.6601 28.0622 7.5244L27.4325 6.89552Z" fill="#FFB800"/>
<path d="M2.93937 27.6572C2.80373 27.5213 2.58353 27.5211 2.44766 27.6569L1.81743 28.2864L1.1872 27.6569C1.05126 27.5211 0.831185 27.5213 0.695483 27.6572C0.559781 27.793 0.559956 28.0131 0.695776 28.1488L1.32548 28.7778L0.695717 29.4068C0.559898 29.5424 0.559722 29.7626 0.695424 29.8984C0.831126 30.0342 1.05126 30.0345 1.18714 29.8987L1.81737 29.2692L2.4476 29.8987C2.51551 29.9666 2.60439 30.0004 2.69334 30.0004C2.7824 30.0004 2.8714 29.9664 2.93931 29.8984C3.07502 29.7627 3.0749 29.5425 2.93902 29.4068L2.30938 28.7778L2.93908 28.1488C3.07496 28.0131 3.07507 27.793 2.93937 27.6572Z" fill="#FFB800"/>
<path d="M25.3379 22.2656H26.8027V22.5H25.3379V22.2656Z" fill="#FFB800"/>
<path d="M25.3379 25.1367H25.567H26.5057H26.8027V23.2031H25.3379V25.1367Z" fill="#FFB800"/>
<path d="M25.3379 12.1875H26.8027V21.5624H25.3379V12.1875Z" fill="#FFB800"/>
<path d="M25.5117 25.8394H26.4492V26.8354H25.5117V25.8394Z" fill="#FFB800"/>
<path d="M25.5312 11.484H26.5271L26.0166 10.5015L25.5312 11.484Z" fill="#FFB800"/>
</svg>
