<svg width="60" height="60" viewBox="0 0 60 60" fill="none" xmlns="http://www.w3.org/2000/svg">
<g clip-path="url(#clip0)">
<path d="M10.8723 24.2855L10.8711 47.8107H49.1269L49.1281 24.2857C49.1282 22.9603 48.0535 21.8857 46.7278 21.8857H13.2725C11.9469 21.8857 10.8723 22.9602 10.8723 24.2855Z" fill="#57D4FF"/>
<path d="M46.2837 53.3238H13.7164C10.6715 53.3238 8.20312 50.8554 8.20312 47.8105H51.797C51.797 50.8554 49.3286 53.3238 46.2837 53.3238Z" fill="#EEEEEE"/>
<path d="M48.1955 47.8105C48.1955 50.8554 45.7269 53.3238 42.6816 53.3238H46.282C49.3272 53.3238 51.7959 50.8554 51.7959 47.8105H48.1955Z" fill="#E0E0E0"/>
<path d="M31.997 51.1942H28.0005C27.6691 51.1942 27.4004 50.9255 27.4004 50.5941C27.4004 50.2628 27.6691 49.9941 28.0005 49.9941H31.997C32.3284 49.9941 32.5971 50.2628 32.5971 50.5941C32.5971 50.9255 32.3284 51.1942 31.997 51.1942Z" fill="#133B63"/>
<path d="M45.9143 25.0461H14.0879L14.1204 47.8105H45.9143V25.0461Z" fill="white"/>
<path d="M21.4883 41.6519V12.9422H38.5147V41.6519H21.4883Z" fill="#7DC5ED"/>
<path d="M21.4883 41.6518H22.1063L21.4883 41.3955V41.6518Z" fill="#7DC5ED"/>
<path d="M25.5222 37.0404C24.4424 36.0225 22.9859 35.3502 21.4883 35.0278V41.3945L22.1063 41.6509H28.0241L28.0282 41.6473C27.7586 39.8626 26.8806 38.3209 25.5222 37.0404Z" fill="#EEEEEE"/>
<path d="M33.8091 37.0188C32.4212 38.2891 31.5261 39.8593 31.2559 41.6433L31.2734 41.6519H38.5147V34.9853L38.4854 34.9746C36.7939 35.2282 35.03 35.9013 33.8091 37.0188Z" fill="#EEEEEE"/>
<path d="M28.0265 12.9424H21.4883V19.4449C22.9879 19.1349 24.4458 18.4863 25.527 17.4641C26.7044 16.351 27.6505 14.4437 28.0265 12.9424Z" fill="#EEEEEE"/>
<path d="M31.6934 12.9424C31.9365 14.4197 32.7392 16.177 33.9698 17.3074C35.1492 18.3909 36.899 18.9737 38.516 19.1379V12.9424H31.6934Z" fill="#EEEEEE"/>
<path d="M8.74922 18.4908L4.67246 13.321L0.595703 18.4908H2.65886V27.9838H6.68606V18.4908H8.74922Z" fill="#24D38C"/>
<path d="M6.68724 28.584H2.66004C2.3286 28.584 2.05992 28.3153 2.05992 27.984V19.0909H0.596883C0.105963 19.0909 -0.178918 18.5058 0.125643 18.1194L4.20228 12.9497C4.43832 12.6504 4.9086 12.6501 5.14464 12.9497L9.2214 18.1194C9.52548 18.5049 9.24228 19.0909 8.75028 19.0909H7.28724V27.984C7.28724 28.3153 7.01868 28.584 6.68724 28.584ZM3.26004 27.384H6.08712V18.4909C6.08712 18.1596 6.3558 17.8909 6.68724 17.8909H7.5132L4.67364 14.2902L1.8342 17.8909H2.66004C2.99148 17.8909 3.26016 18.1596 3.26016 18.4909V27.384H3.26004Z" fill="#133B63"/>
<path d="M4.67434 26.5991C4.3429 26.5991 4.07422 26.3304 4.07422 25.9991V25.2863C4.07422 24.955 4.3429 24.6863 4.67434 24.6863C5.00578 24.6863 5.27446 24.955 5.27446 25.2863V25.9991C5.27446 26.3304 5.00578 26.5991 4.67434 26.5991Z" fill="#20B273"/>
<path d="M4.67434 23.3591C4.3429 23.3591 4.07422 23.0904 4.07422 22.7591V22.0463C4.07422 21.715 4.3429 21.4463 4.67434 21.4463C5.00578 21.4463 5.27446 21.715 5.27446 22.0463V22.7591C5.27446 23.0904 5.00578 23.3591 4.67434 23.3591Z" fill="#20B273"/>
<path d="M4.67434 20.1191C4.3429 20.1191 4.07422 19.8504 4.07422 19.5191V18.8063C4.07422 18.475 4.3429 18.2063 4.67434 18.2063C5.00578 18.2063 5.27446 18.475 5.27446 18.8063V19.5191C5.27446 19.8504 5.00578 20.1191 4.67434 20.1191Z" fill="#20B273"/>
<path d="M59.4035 27.8044L55.3268 32.9741L51.25 27.8044H53.3132V18.3113H57.3404V27.8044H59.4035Z" fill="#FF5477"/>
<path d="M54.8547 33.3455L50.778 28.1758C50.4736 27.7901 50.7578 27.2043 51.2491 27.2043H52.7123V18.3112C52.7123 17.9799 52.9808 17.7112 53.3124 17.7112H57.3396C57.671 17.7112 57.9397 17.9799 57.9397 18.3112V27.2043H59.4027C59.8937 27.2043 60.1785 27.7894 59.874 28.1758L55.7973 33.3455C55.6522 33.5741 55.1721 33.715 54.8547 33.3455ZM52.4864 28.4044L55.326 32.0051L58.1654 28.4044H57.3396C57.0081 28.4044 56.7395 28.1357 56.7395 27.8044V18.9113H53.9124V27.8044C53.9124 28.1357 53.6438 28.4044 53.3123 28.4044H52.4864Z" fill="#133B63"/>
<path d="M55.3267 21.6092C54.9952 21.6092 54.7266 21.3405 54.7266 21.0092V20.2965C54.7266 19.9652 54.9952 19.6965 55.3267 19.6965C55.6581 19.6965 55.9268 19.9652 55.9268 20.2965V21.0092C55.9267 21.3405 55.6581 21.6092 55.3267 21.6092Z" fill="#EA5075"/>
<path d="M55.3267 24.8492C54.9952 24.8492 54.7266 24.5805 54.7266 24.2492V23.5365C54.7266 23.2052 54.9952 22.9365 55.3267 22.9365C55.6581 22.9365 55.9268 23.2052 55.9268 23.5365V24.2492C55.9267 24.5805 55.6581 24.8492 55.3267 24.8492Z" fill="#EA5075"/>
<path d="M55.3267 28.0892C54.9952 28.0892 54.7266 27.8205 54.7266 27.4892V26.7765C54.7266 26.4452 54.9952 26.1765 55.3267 26.1765C55.6581 26.1765 55.9268 26.4452 55.9268 26.7765V27.4892C55.9267 27.8205 55.6581 28.0892 55.3267 28.0892Z" fill="#EA5075"/>
<path d="M54.266 3.93093C54.4368 13.1729 47.4817 16.1989 47.4817 16.1989C47.4817 16.1989 40.4612 13.9117 40.6972 3.93093H40.6975C42.3966 3.65901 43.6369 2.27421 43.6299 0.657094L43.6297 0.599854H51.3334L51.3332 0.657334C51.3264 2.27445 52.5669 3.65913 54.266 3.93093Z" fill="#FCCD47"/>
<path d="M54.2644 3.93093C52.5653 3.65913 51.3249 2.27445 51.3317 0.657214L51.3318 0.599854H48.9316L48.9314 1.85733C48.9245 3.47457 50.165 4.85925 51.864 5.13105C51.9731 11.0346 49.1747 14.4015 47.1387 16.0639C47.3543 16.158 47.48 16.1991 47.48 16.1991C47.48 16.1991 54.4352 13.1729 54.2644 3.93093Z" fill="#E5B642"/>
<path d="M47.3008 16.7696C47.2239 16.7425 45.3798 16.1288 43.5701 14.2208C41.9178 12.4789 39.9748 9.2772 40.1016 3.91692C40.1084 3.63192 40.3254 3.38292 40.6069 3.33864C42.0192 3.11256 43.0402 1.986 43.0345 0.65976C43.0124 0.31188 43.2776 0 43.6343 0H51.339C51.6958 0 51.9609 0.312 51.9389 0.65988C51.9333 1.98612 52.9543 3.11268 54.3667 3.33864C54.6537 3.38448 54.8665 3.6294 54.8719 3.92004C54.9639 8.88936 53.029 12.1074 51.3898 13.9318C49.6053 15.9179 47.8019 16.7162 47.7261 16.7492C47.65 16.7825 47.4507 16.8226 47.3008 16.7696ZM41.2956 4.41372C41.2928 8.14308 42.3352 11.1472 44.3971 13.3486C45.6594 14.6962 46.9565 15.3325 47.4582 15.5446C47.9566 15.2837 49.2604 14.5194 50.5342 13.0884C52.591 10.7777 53.6464 7.86096 53.6747 4.41288C52.1217 3.97344 50.9913 2.71776 50.776 1.2H44.1976C43.982 2.71884 42.8503 3.97524 41.2956 4.41372Z" fill="#133B63"/>
<path d="M45.9815 10.148L43.9095 7.84184C43.688 7.59536 43.7084 7.21604 43.9549 6.99452C44.2016 6.773 44.5811 6.79352 44.8023 7.03988L46.4564 8.88092L50.4573 4.97768C50.6947 4.74632 51.0743 4.75088 51.306 4.98812C51.5373 5.22536 51.5328 5.60516 51.2955 5.83652L46.847 10.1764C46.7347 10.286 46.3824 10.5902 45.9815 10.148Z" fill="#133B63"/>
<path d="M0.746094 39.001H24.4502V59.3999H0.746094V39.001Z" fill="#FCCD47"/>
<path d="M22.0508 39.0012H24.451V59.4H22.0508V39.0012Z" fill="#E5B642"/>
<path d="M51.7964 47.2107H49.7278L49.729 24.2859C49.7293 22.6504 48.3643 21.2859 46.7287 21.2859H39.115V12.9425C39.115 12.6112 38.8464 12.3425 38.5149 12.3425H21.4885C21.157 12.3425 20.8884 12.6112 20.8884 12.9425V21.2859H13.273C11.6162 21.2859 10.2729 22.6289 10.2729 24.2857L10.2722 38.4013H0.746604C0.415164 38.4013 0.146484 38.6699 0.146484 39.0013V59.4001C0.146484 59.7314 0.415164 60.0001 0.746604 60.0001H24.4506C24.782 60.0001 25.0507 59.7314 25.0507 59.4001V53.924H46.2836C49.6558 53.924 52.3993 51.1798 52.3975 47.8074C52.3971 47.4793 52.1245 47.2107 51.7964 47.2107ZM14.7064 38.4011L14.6882 25.6462H20.8885V38.4011H14.7064ZM45.3135 47.2107H25.0506V42.2521H40.9864C41.3179 42.2521 41.5866 41.9834 41.5866 41.6521C41.5866 41.3207 41.318 41.0521 40.9864 41.0521H39.115V25.6463H45.3136V47.2107H45.3135ZM31.9876 41.0521C32.3323 39.7059 33.0794 38.5006 34.2146 37.4615C35.1124 36.6398 36.4359 36.0098 37.9148 35.689V41.0521H31.9876ZM37.9148 13.5424V18.4505C36.484 18.2031 35.2183 17.6405 34.3747 16.8656C33.5097 16.0711 32.7894 14.8193 32.4382 13.5424H37.9148ZM33.5628 17.7493C34.6131 18.7141 36.1778 19.3977 37.9148 19.6645V34.4655C36.1309 34.8115 34.5068 35.5671 33.4042 36.5763C32.0305 37.8338 31.1238 39.3727 30.7574 41.0519H28.527C28.1671 39.3847 27.2977 37.8903 25.934 36.6049C24.9442 35.6717 23.5921 34.9549 22.0886 34.5572V19.9211C23.6215 19.5322 24.9459 18.8395 25.9394 17.9001C27.1353 16.7697 28.0398 14.9783 28.48 13.5424H31.2036C31.5174 14.8792 32.2648 16.5571 33.5628 17.7493ZM25.1149 17.0281C24.3328 17.7675 23.2966 18.3313 22.0886 18.6794V13.5423H27.2184C26.8011 14.7289 26.051 16.1433 25.1149 17.0281ZM22.0885 35.8028C23.2759 36.1607 24.3307 36.7427 25.1107 37.4781C26.2226 38.5262 26.9554 39.7257 27.2956 41.0521H25.0506V39.0011C25.0506 38.6698 24.7819 38.4011 24.4504 38.4011H22.0884V35.8028H22.0885ZM46.7286 22.4858C47.7099 22.4858 48.5288 23.3045 48.5288 24.2858L48.5276 47.2107H46.5136V25.0463C46.5136 24.715 46.245 24.4463 45.9135 24.4463H39.1149V22.4859H46.7286V22.4858ZM11.4732 24.2857C11.4733 23.2933 12.2808 22.4858 13.2734 22.4858H20.8885V24.4462H14.0872C13.7602 24.4462 13.4866 24.7201 13.4871 25.0471L13.5062 38.401H11.4724L11.4732 24.2857ZM23.8504 58.8001H1.34672V39.6011H23.8504V58.8001ZM46.2835 52.724H25.0506V48.4107H51.1608C50.8639 50.838 48.7898 52.724 46.2835 52.724Z" fill="#133B63"/>
<path d="M14.3169 57.9249C13.9855 57.9249 13.7168 57.6562 13.7168 57.3249V52.0502C13.7168 51.7189 13.9855 51.4502 14.3169 51.4502C14.6484 51.4502 14.917 51.7189 14.917 52.0502V57.3249C14.9169 57.6562 14.6484 57.9249 14.3169 57.9249Z" fill="#133B63"/>
<path d="M10.8228 57.925C10.4913 57.925 10.2227 57.6563 10.2227 57.325V54.8688C10.2227 54.5375 10.4913 54.2688 10.8228 54.2688C11.1542 54.2688 11.4229 54.5375 11.4229 54.8688V57.325C11.4229 57.6563 11.1542 57.925 10.8228 57.925Z" fill="#133B63"/>
<path d="M17.8208 57.9249C17.4894 57.9249 17.2207 57.6562 17.2207 57.3249V53.6608C17.2207 53.3295 17.4894 53.0608 17.8208 53.0608C18.1523 53.0608 18.4209 53.3295 18.4209 53.6608V57.3249C18.4208 57.6562 18.1523 57.9249 17.8208 57.9249Z" fill="#133B63"/>
<path d="M21.313 57.9249C20.9816 57.9249 20.7129 57.6562 20.7129 57.3249V50.037C20.7129 49.7057 20.9816 49.437 21.313 49.437C21.6444 49.437 21.9131 49.7057 21.9131 50.037V57.3249C21.9131 57.6562 21.6444 57.9249 21.313 57.9249Z" fill="#133B63"/>
<path d="M7.32863 57.9248C6.99719 57.9248 6.72852 57.6561 6.72852 57.3248V52.8554C6.72852 52.5241 6.99719 52.2554 7.32863 52.2554C7.66007 52.2554 7.92875 52.5241 7.92875 52.8554V57.3248C7.92863 57.6561 7.66007 57.9248 7.32863 57.9248Z" fill="#133B63"/>
<path d="M3.83645 57.9248C3.50501 57.9248 3.23633 57.6561 3.23633 57.3248V55.674C3.23633 55.3427 3.50501 55.074 3.83645 55.074C4.16789 55.074 4.43657 55.3427 4.43657 55.674V57.3248C4.43657 57.6561 4.16789 57.9248 3.83645 57.9248Z" fill="#133B63"/>
<path d="M21.9956 46.2516L21.3727 44.242C21.2729 43.9197 20.9116 43.7399 20.594 43.856L18.6688 44.5581C18.3574 44.6716 18.1971 45.016 18.3106 45.3274C18.4243 45.6388 18.7687 45.7989 19.0799 45.6855L19.6475 45.4785L17.6189 49.856L15.2271 46.6678C14.7365 46.0138 13.7044 46.0706 13.2886 46.774L10.7173 51.125L8.22737 48.4257C7.74425 47.9018 6.87797 47.9404 6.44369 48.5052L3.29825 52.5951C3.11477 52.8338 3.13997 53.1831 3.35693 53.3922C3.61121 53.6375 4.03433 53.6064 4.24973 53.3266L7.37129 49.2676L9.86477 51.9707C10.387 52.5369 11.3362 52.4363 11.7278 51.7738L14.2967 47.4272L16.6918 50.62C17.2123 51.3136 18.3197 51.1977 18.6843 50.4111L20.6882 46.0871L20.8493 46.6071C20.9499 46.9319 21.3135 47.1104 21.6323 46.9916C21.9266 46.8818 22.0886 46.5515 21.9956 46.2516Z" fill="#133B63"/>
<path d="M32.144 31.5573L32.144 30.4373L31.052 30.4373L31.052 31.5573L29.316 31.5573L29.316 30.4373L25.004 30.4373L25.004 27.2453C25.004 25.9573 25.2653 25.0193 25.788 24.4313C26.3107 23.8339 27.0293 23.5353 27.944 23.5353C28.4853 23.5353 28.994 23.6566 29.47 23.8993C29.946 24.1419 30.3287 24.5479 30.618 25.1173C30.9073 25.6773 31.052 26.4426 31.052 27.4133L31.052 28.3233L32.144 28.3233L32.144 26.1673L33.502 26.1673L33.502 28.3233L35 28.3233L35 30.4373L33.502 30.4373L33.502 31.5573L32.144 31.5573ZM26.74 27.3573L26.74 28.3233L29.316 28.3233L29.316 27.6233C29.316 27.0259 29.2133 26.5546 29.008 26.2093C28.8027 25.8546 28.4713 25.6773 28.014 25.6773C27.1647 25.6773 26.74 26.2373 26.74 27.3573Z" fill="#0E7BB7"/>
</g>
<defs>
<clipPath id="clip0">
<rect width="60" height="60" fill="white"/>
</clipPath>
</defs>
</svg>
