<svg width="85" height="87" viewBox="0 0 85 87" fill="none" xmlns="http://www.w3.org/2000/svg">
<path d="M84.4722 44.0832C84.4722 41.1542 84.2355 38.2088 83.7272 35.3262H43.0859V51.9189H66.3598C65.3943 57.2711 62.2913 62.0059 57.747 65.0139V75.7809H71.633C79.7863 68.2749 84.4722 57.1922 84.4722 44.0832Z" fill="#4285F4"/>
<path d="M43.088 86.1812C54.7087 86.1812 64.5074 82.3655 71.6488 75.7808L57.763 65.0137C53.901 67.6411 48.9134 69.1289 43.1018 69.1289C31.8618 69.1289 22.3299 61.5462 18.9112 51.3501H4.58203V62.449C11.8975 76.9993 26.7953 86.1812 43.088 86.1812Z" fill="#34A853"/>
<path d="M18.8961 51.3504C17.0905 45.9982 17.0905 40.2027 18.8961 34.8529V23.7539H4.58318C-1.52773 35.9275 -1.52773 50.2734 4.58318 62.4493L18.8961 51.3504Z" fill="#FBBC04"/>
<path d="M43.088 17.0553C49.229 16.9601 55.1658 19.2718 59.615 23.5146L71.9181 11.2133C64.1292 3.89757 53.7896 -0.124706 43.088 0.00294817C26.7953 0.00294817 11.8975 9.18709 4.58203 23.7513L18.895 34.8503C22.2997 24.6379 31.8456 17.0553 43.088 17.0553Z" fill="#EA4335"/>
</svg>
