<svg width="64" height="64" viewBox="0 0 64 64" fill="none" xmlns="http://www.w3.org/2000/svg">
<path d="M11.6934 4.41113H52.9909V58.5511H11.6934V4.41113Z" fill="#A2E5F8"/>
<path d="M14.9082 8.55518H49.4707V55.0789H19.2445C18.0944 55.0789 16.9915 54.6221 16.1783 53.8089C15.3651 52.9957 14.9082 51.8927 14.9082 50.7427V8.55518Z" fill="white"/>
<path d="M33.0996 3.33374H38.8971V5.85624H33.0996V3.33374Z" fill="white"/>
<path d="M25.7832 3.33374H36.8745V5.85624H25.7832V3.33374Z" fill="#CECECE"/>
<path d="M47.4678 55.0786H51.3841C52.613 55.0786 53.7916 54.5904 54.6606 53.7214C55.5296 52.8524 56.0178 51.6738 56.0178 50.4448H24.0778C24.0778 51.6736 23.5898 52.852 22.7211 53.7209C21.8523 54.5899 20.674 55.0782 19.4453 55.0786" fill="#F7AA8F"/>
<path d="M18.8972 44.0114C18.7819 44.0115 18.6687 43.9797 18.5703 43.9196C18.472 43.8594 18.3921 43.7731 18.3397 43.6704C18.2873 43.5676 18.2644 43.4524 18.2734 43.3374C18.2824 43.2224 18.3231 43.1122 18.3909 43.0189L21.1859 39.1664C21.2433 39.0871 21.2776 38.9936 21.2851 38.896C21.2926 38.7985 21.2731 38.7008 21.2286 38.6136C21.1841 38.5265 21.1165 38.4534 21.0331 38.4022C20.9497 38.3511 20.8538 38.324 20.7559 38.3239H18.8972C18.7314 38.3239 18.5725 38.258 18.4553 38.1408C18.338 38.0236 18.2722 37.8647 18.2722 37.6989C18.2722 37.5331 18.338 37.3742 18.4553 37.257C18.5725 37.1397 18.7314 37.0739 18.8972 37.0739H20.7559C21.0843 37.0737 21.4064 37.1643 21.6864 37.3357C21.9665 37.5072 22.1937 37.7527 22.3429 38.0453C22.492 38.3378 22.5574 38.6659 22.5317 38.9933C22.506 39.3206 22.3902 39.6345 22.1972 39.9002L21.3372 41.0864L28.9359 36.2339C29.0051 36.1897 29.0823 36.1596 29.1632 36.1453C29.244 36.131 29.3268 36.1327 29.407 36.1504C29.4871 36.1681 29.563 36.2015 29.6303 36.2485C29.6976 36.2955 29.7549 36.3553 29.7991 36.4245C29.8432 36.4937 29.8733 36.5709 29.8876 36.6517C29.902 36.7326 29.9002 36.8154 29.8825 36.8956C29.8648 36.9757 29.8315 37.0516 29.7845 37.1189C29.7375 37.1861 29.6776 37.2435 29.6084 37.2876L19.2334 43.9127C19.1331 43.977 19.0164 44.0112 18.8972 44.0114Z" fill="#A2E5F8"/>
<path d="M13.0737 33.4388L14.6038 32.73C16.4274 31.8856 17.9714 30.537 19.0534 28.8435C20.1354 27.1499 20.7102 25.1822 20.71 23.1725V15.39H16.75C15.9382 15.3894 15.147 15.1344 14.4876 14.6609C13.8282 14.1873 13.3337 13.5191 13.0737 12.75C12.8134 13.5192 12.3185 14.1875 11.6586 14.6608C10.9987 15.1342 10.2071 15.3887 9.395 15.3888H5.4375V23.1712C5.43757 25.181 6.01265 27.1488 7.09486 28.8423C8.17706 30.5359 9.72121 31.8844 11.545 32.7287L13.0737 33.4388Z" fill="#FC8C5C"/>
<path d="M20.7109 15.3899V23.1724C20.7111 25.1821 20.1363 27.1498 19.0543 28.8434C17.9723 30.5369 16.4283 31.8855 14.6047 32.7299L13.0759 33.4386L12.3047 33.0824L13.0647 32.7299C14.8883 31.8855 16.4323 30.5369 17.5143 28.8434C18.5963 27.1498 19.1711 25.1821 19.1709 23.1724V15.3899H20.7109Z" fill="white"/>
<path d="M16.5869 23.375C16.5867 24.3401 16.3083 25.2847 15.7851 26.0956C15.2619 26.9065 14.516 27.5495 13.6368 27.9474C12.7575 28.3453 11.7823 28.4814 10.8277 28.3393C9.87314 28.1972 8.97978 27.7829 8.25459 27.1462C7.52941 26.5094 7.00314 25.6771 6.73882 24.7489C6.47451 23.8207 6.48334 22.836 6.76426 21.9127C7.04518 20.9895 7.58629 20.1667 8.32278 19.543C9.05927 18.9194 9.95992 18.5212 10.9169 18.3963C11.1323 18.3676 11.3495 18.3534 11.5669 18.3538C12.8984 18.3541 14.1752 18.8833 15.1166 19.8249C16.058 20.7665 16.5869 22.0435 16.5869 23.375Z" fill="#E85021"/>
<path d="M18.095 23.375C18.0947 24.7063 17.5657 25.983 16.6243 26.9243C15.6829 27.8657 14.4063 28.3947 13.075 28.395C12.8572 28.3948 12.6397 28.3806 12.4237 28.3525C11.2146 28.1954 10.104 27.6035 9.29927 26.6874C8.49457 25.7713 8.05078 24.5937 8.05078 23.3744C8.05078 22.1551 8.49457 20.9774 9.29927 20.0614C10.104 19.1453 11.2146 18.5534 12.4237 18.3963C12.6396 18.3676 12.8572 18.3534 13.075 18.3538C14.4065 18.3541 15.6833 18.8833 16.6247 19.8249C17.5661 20.7665 18.095 22.0435 18.095 23.375Z" fill="white"/>
<path d="M16.8831 23.375C16.8831 23.875 16.7846 24.3701 16.5933 24.832C16.4019 25.294 16.1215 25.7137 15.7679 26.0673C15.4144 26.4208 14.9946 26.7013 14.5327 26.8926C14.0707 27.084 13.5756 27.1825 13.0756 27.1825C12.9106 27.1822 12.7457 27.1718 12.5819 27.1512C11.8557 27.0565 11.1723 26.7545 10.6134 26.2813C10.0545 25.8081 9.64381 25.1839 9.43061 24.4833C9.21741 23.7827 9.2107 23.0355 9.41128 22.3312C9.61186 21.6269 10.0112 20.9954 10.5615 20.5122C11.1118 20.0291 11.7898 19.7148 12.5141 19.6071C13.2384 19.4994 13.9785 19.6028 14.6456 19.9049C15.3127 20.2069 15.8785 20.6949 16.2754 21.3104C16.6722 21.9258 16.8832 22.6426 16.8831 23.375Z" fill="#F7BF08"/>
<path opacity="0.37" d="M45.8141 41.1798L44.7691 42.2248L43.1053 45.9586L37.3128 47.1761C37.1971 47.2005 37.077 47.1956 36.9636 47.1618C36.8503 47.1281 36.7471 47.0667 36.6634 46.983C36.5797 46.8994 36.5183 46.7962 36.4846 46.6828C36.4509 46.5694 36.446 46.4494 36.4703 46.3336L37.6878 40.5411L41.4216 38.8748L42.4666 37.8298" fill="black"/>
<path opacity="0.37" d="M46.3398 40.6602L42.6042 36.9245L44.6563 34.8725L48.3919 38.6081L46.3398 40.6602Z" fill="black"/>
<path opacity="0.37" d="M56.1882 30.805L48.3945 38.5988L44.6582 34.8625L56.1882 23.3325" fill="black"/>
<path d="M44.9066 39.1312L43.8616 40.1762L42.1979 43.9087L35.3379 45.3524L36.7804 38.4924L40.5141 36.8274L41.5591 35.7837" fill="#F7AA8F"/>
<path d="M39.2702 42.2061C39.7969 42.2061 40.2239 41.7791 40.2239 41.2523C40.2239 40.7256 39.7969 40.2986 39.2702 40.2986C38.7434 40.2986 38.3164 40.7256 38.3164 41.2523C38.3164 41.7791 38.7434 42.2061 39.2702 42.2061Z" fill="#3B8C99"/>
<path d="M46.3418 38.0942L42.6062 34.3586L44.6583 32.3066L48.3939 36.0422L46.3418 38.0942Z" fill="#F7BF08"/>
<path d="M56.1882 28.2401L48.3945 36.0338L44.6582 32.2976L56.1882 20.7676" fill="#CECECE"/>
<path d="M11.6934 11.7187C11.8591 11.7187 12.0181 11.6529 12.1353 11.5357C12.2525 11.4185 12.3184 11.2595 12.3184 11.0937V5.03624H25.1596V5.85624C25.1596 6.022 25.2255 6.18097 25.3427 6.29818C25.4599 6.41539 25.6188 6.48124 25.7846 6.48124H38.8984C39.0641 6.48124 39.2231 6.41539 39.3403 6.29818C39.4575 6.18097 39.5234 6.022 39.5234 5.85624V5.03624H52.3659V23.5362L50.0959 25.8062V8.58374C50.0959 8.41798 50.03 8.25901 49.9128 8.1418C49.7956 8.02459 49.6366 7.95874 49.4709 7.95874H14.8109C14.6451 7.95874 14.4861 8.02459 14.3689 8.1418C14.2517 8.25901 14.1859 8.41798 14.1859 8.58374V11.0937C14.1859 11.2595 14.2517 11.4185 14.3689 11.5357C14.4861 11.6529 14.6451 11.7187 14.8109 11.7187C14.9766 11.7187 15.1356 11.6529 15.2528 11.5357C15.37 11.4185 15.4359 11.2595 15.4359 11.0937V9.20874H48.8459V27.0575L44.0484 31.855L42.4384 33.4662L41.4746 32.5037C41.3567 32.3899 41.1989 32.3269 41.035 32.3283C40.8711 32.3297 40.7144 32.3955 40.5985 32.5114C40.4826 32.6272 40.4169 32.784 40.4154 32.9479C40.414 33.1117 40.477 33.2696 40.5909 33.3875L42.0009 34.7925L45.7371 38.5287L47.1421 39.9337C47.1998 39.9934 47.2687 40.041 47.345 40.0738C47.4212 40.1066 47.5032 40.1238 47.5862 40.1245C47.6692 40.1252 47.7515 40.1094 47.8283 40.078C47.9051 40.0466 47.9749 40.0002 48.0336 39.9415C48.0923 39.8828 48.1387 39.813 48.1701 39.7362C48.2015 39.6594 48.2174 39.5771 48.2166 39.4941C48.2159 39.4111 48.1987 39.3291 48.1659 39.2529C48.1332 39.1766 48.0856 39.1076 48.0259 39.05L47.0634 38.0862L48.6734 36.4762L48.8509 36.2975V49.82H24.0796C23.9138 49.82 23.7549 49.8858 23.6377 50.0031C23.5205 50.1203 23.4546 50.2792 23.4546 50.445C23.4536 51.5079 23.0309 52.5269 22.2794 53.2785C21.5278 54.0301 20.5087 54.4528 19.4459 54.4537H19.1609C18.1808 54.4322 17.2479 54.0289 16.561 53.3295C15.874 52.6302 15.4874 51.6903 15.4834 50.71V35.625C15.4834 35.4592 15.4175 35.3003 15.3003 35.1831C15.1831 35.0658 15.0241 35 14.8584 35C14.6926 35 14.5336 35.0658 14.4164 35.1831C14.2992 35.3003 14.2334 35.4592 14.2334 35.625V50.7087C14.2388 52.0141 14.7529 53.2659 15.6664 54.1983C16.5799 55.1307 17.8209 55.6703 19.1259 55.7025H51.3859C52.7802 55.7012 54.117 55.1467 55.1029 54.1608C56.0888 53.1749 56.6433 51.838 56.6446 50.4437C56.6446 50.278 56.5788 50.119 56.4616 50.0018C56.3443 49.8846 56.1854 49.8187 56.0196 49.8187H50.0959V35.0475L52.3659 32.7775V46.3525C52.3659 46.5183 52.4317 46.6772 52.5489 46.7944C52.6661 46.9116 52.8251 46.9775 52.9909 46.9775C53.1566 46.9775 53.3156 46.9116 53.4328 46.7944C53.55 46.6772 53.6159 46.5183 53.6159 46.3525V31.5275L56.4621 28.6825C56.5202 28.6244 56.5663 28.5554 56.5978 28.4795C56.6292 28.4035 56.6454 28.3222 56.6454 28.24C56.6454 28.1578 56.6292 28.0764 56.5978 28.0005C56.5663 27.9246 56.5202 27.8556 56.4621 27.7975C56.404 27.7394 56.335 27.6933 56.2591 27.6618C56.1832 27.6304 56.1018 27.6142 56.0196 27.6142C55.9374 27.6142 55.8561 27.6304 55.7801 27.6618C55.7042 27.6933 55.6352 27.7394 55.5771 27.7975L48.2259 35.15L45.3759 32.2975L56.4646 21.21C56.582 21.0926 56.6479 20.9335 56.6479 20.7675C56.6479 20.6015 56.582 20.4424 56.4646 20.325C56.3472 20.2076 56.1881 20.1417 56.0221 20.1417C55.8561 20.1417 55.697 20.2076 55.5796 20.325L53.6184 22.2875V4.41249C53.6184 4.24673 53.5525 4.08776 53.4353 3.97055C53.3181 3.85334 53.1591 3.78749 52.9934 3.78749H39.5234V3.33374C39.5234 3.16798 39.4575 3.00901 39.3403 2.8918C39.2231 2.77459 39.0641 2.70874 38.8984 2.70874H25.7846C25.6188 2.70874 25.4599 2.77459 25.3427 2.8918C25.2255 3.00901 25.1596 3.16798 25.1596 3.33374V3.78624H11.6934C11.5276 3.78624 11.3686 3.85209 11.2514 3.9693C11.1342 4.08651 11.0684 4.24548 11.0684 4.41124V11.0937C11.0684 11.2595 11.1342 11.4185 11.2514 11.5357C11.3686 11.6529 11.5276 11.7187 11.6934 11.7187ZM51.3859 54.4537H22.8434C23.8572 53.5969 24.5088 52.3879 24.6671 51.07H55.3459C55.1958 52.0127 54.7147 52.8711 53.989 53.4912C53.2633 54.1113 52.3404 54.4525 51.3859 54.4537ZM46.1734 37.2037L43.3209 34.35L44.4896 33.1812L47.3421 36.0337L46.1734 37.2037ZM38.2734 3.95874V5.23124H26.4096V4.41124V3.95874H38.2734Z" fill="black"/>
<path d="M53.6159 58.5513C53.6159 58.3855 53.55 58.2265 53.4328 58.1093C53.3156 57.9921 53.1566 57.9263 52.9909 57.9263H12.3184V35.625C12.3184 35.4592 12.2525 35.3003 12.1353 35.1831C12.0181 35.0658 11.8591 35 11.6934 35C11.5276 35 11.3686 35.0658 11.2514 35.1831C11.1342 35.3003 11.0684 35.4592 11.0684 35.625V58.5513C11.0684 58.717 11.1342 58.876 11.2514 58.9932C11.3686 59.1104 11.5276 59.1763 11.6934 59.1763H52.9909C53.1566 59.1763 53.3156 59.1104 53.4328 58.9932C53.55 58.876 53.6159 58.717 53.6159 58.5513Z" fill="black"/>
<path d="M40.6015 37.3988C40.671 37.3689 40.7345 37.3265 40.789 37.2738L41.834 36.2288C41.892 36.1707 41.938 36.1018 41.9694 36.0259C42.0007 35.95 42.0169 35.8687 42.0168 35.7865C42.0168 35.7044 42.0005 35.6231 41.969 35.5473C41.9376 35.4714 41.8914 35.4025 41.8333 35.3445C41.7752 35.2864 41.7063 35.2404 41.6304 35.2091C41.5545 35.1777 41.4731 35.1616 41.391 35.1616C41.3089 35.1617 41.2276 35.1779 41.1517 35.2094C41.0759 35.2409 41.007 35.287 40.949 35.3451L39.9865 36.3076L36.3615 37.9251C36.2711 37.9653 36.1916 38.0264 36.1294 38.1033C36.0673 38.1802 36.0243 38.2708 36.004 38.3676L34.5615 45.2276C34.5429 45.3183 34.5448 45.412 34.5669 45.5019C34.589 45.5918 34.6309 45.6757 34.6894 45.7474C34.7478 45.8192 34.8215 45.8771 34.9051 45.9169C34.9887 45.9567 35.0801 45.9774 35.1727 45.9776C35.2147 45.9771 35.2566 45.9725 35.2977 45.9638L42.1577 44.5213C42.2545 44.501 42.3451 44.458 42.422 44.3959C42.4989 44.3337 42.56 44.2542 42.6002 44.1638L44.2177 40.5388L45.1802 39.5751C45.2941 39.4572 45.3571 39.2993 45.3556 39.1355C45.3542 38.9716 45.2885 38.8148 45.1726 38.699C45.0567 38.5831 44.9 38.5173 44.7361 38.5159C44.5722 38.5145 44.4143 38.5775 44.2965 38.6913L43.2502 39.7338C43.1975 39.7883 43.1552 39.8518 43.1252 39.9213L41.5902 43.3638L37.1002 44.3076L38.689 42.7188C38.8742 42.7929 39.072 42.8307 39.2715 42.8301C39.6087 42.8302 39.9371 42.7222 40.2085 42.522C40.4799 42.3218 40.6799 42.0399 40.7794 41.7176C40.8788 41.3954 40.8723 41.0497 40.7609 40.7314C40.6495 40.4131 40.439 40.1389 40.1603 39.949C39.8816 39.7591 39.5494 39.6635 39.2124 39.6762C38.8754 39.689 38.5513 39.8094 38.2878 40.0198C38.0242 40.2302 37.835 40.5195 37.7479 40.8453C37.6609 41.1711 37.6805 41.5163 37.804 41.8301L36.2165 43.4188L37.1602 38.9288L40.6015 37.3988ZM39.0377 41.0238C39.0682 40.9933 39.1045 40.9691 39.1444 40.9526C39.1843 40.936 39.227 40.9275 39.2702 40.9275C39.3134 40.9275 39.3561 40.936 39.396 40.9526C39.4359 40.9691 39.4722 40.9933 39.5027 41.0238C39.5487 41.0698 39.58 41.1284 39.5927 41.1922C39.6053 41.2559 39.5988 41.322 39.5739 41.3821C39.549 41.4422 39.5069 41.4935 39.4528 41.5296C39.3988 41.5657 39.3352 41.585 39.2702 41.585C39.2052 41.585 39.1416 41.5657 39.0876 41.5296C39.0335 41.4935 38.9914 41.4422 38.9665 41.3821C38.9416 41.322 38.9351 41.2559 38.9478 41.1922C38.9604 41.1284 38.9917 41.0698 39.0377 41.0238Z" fill="black"/>
<path d="M11.2598 33.2975L12.7898 34.0062C12.872 34.0444 12.9616 34.064 13.0523 34.0637C13.1429 34.0638 13.2325 34.0442 13.3148 34.0062L14.8435 33.2975C16.7729 32.3994 18.4063 30.9699 19.5522 29.1767C20.6981 27.3834 21.3091 25.3006 21.3135 23.1725V15.39C21.3135 15.2242 21.2477 15.0652 21.1305 14.948C21.0132 14.8308 20.8543 14.765 20.6885 14.765H16.7298C16.0484 14.7651 15.3842 14.5515 14.8306 14.1544C14.277 13.7573 13.8618 13.1966 13.6435 12.5512C13.6017 12.4275 13.5222 12.32 13.4162 12.2437C13.3101 12.1675 13.1829 12.1264 13.0523 12.1262C12.9215 12.1261 12.7939 12.1671 12.6876 12.2434C12.5813 12.3196 12.5016 12.4273 12.4598 12.5512C12.2415 13.1964 11.8265 13.757 11.2732 14.1541C10.7198 14.5512 10.0559 14.7648 9.37477 14.765H5.41602C5.25026 14.765 5.09128 14.8308 4.97407 14.948C4.85686 15.0652 4.79102 15.2242 4.79102 15.39V23.1725C4.79517 25.3005 5.4059 27.3833 6.55162 29.1765C7.69733 30.9698 9.33054 32.3993 11.2598 33.2975ZM6.04102 16.015H9.37477C10.0952 16.0149 10.8052 15.8423 11.4452 15.5115C12.0853 15.1807 12.6368 14.7014 13.0535 14.1137C13.4695 14.7019 14.0207 15.1815 14.6606 15.5124C15.3006 15.8432 16.0106 16.0156 16.731 16.015H20.0648V23.1725C20.0605 25.0628 19.5173 26.9127 18.4988 28.5052C17.4804 30.0978 16.029 31.3669 14.3148 32.1637L13.0523 32.75L11.7848 32.1637C10.0717 31.366 8.62161 30.0965 7.60432 28.504C6.58703 26.9116 6.04474 25.0621 6.04102 23.1725V16.015Z" fill="black"/>
<path d="M13.0738 29.0173C14.57 29.0157 16.0045 28.4207 17.0627 27.363C18.1209 26.3053 18.7165 24.871 18.7188 23.3748C18.719 23.166 18.7077 22.9574 18.6851 22.7498C18.6768 22.6677 18.6524 22.588 18.6131 22.5153C18.5739 22.4427 18.5207 22.3786 18.4565 22.3266C18.3924 22.2746 18.3186 22.2359 18.2394 22.2126C18.1602 22.1894 18.0771 22.182 17.9951 22.191C17.913 22.2 17.8335 22.2252 17.7612 22.2651C17.689 22.3049 17.6253 22.3588 17.5739 22.4234C17.5226 22.488 17.4845 22.5622 17.462 22.6416C17.4394 22.721 17.4328 22.8041 17.4426 22.8861C17.4601 23.0471 17.4689 23.2091 17.4688 23.3711C17.4686 24.3861 17.117 25.3697 16.4738 26.1549C15.8307 26.9402 14.9355 27.4786 13.9405 27.6787C12.9454 27.8789 11.9117 27.7284 11.0149 27.253C10.1182 26.7775 9.41367 26.0062 9.021 25.0703C8.62834 24.1343 8.57174 23.0912 8.86083 22.1183C9.14992 21.1453 9.76687 20.3024 10.6069 19.7327C11.4469 19.1629 12.4583 18.9015 13.4692 18.9928C14.4801 19.0842 15.4282 19.5225 16.1526 20.2336C16.2109 20.2924 16.2803 20.339 16.3568 20.3708C16.4333 20.4026 16.5153 20.4188 16.5982 20.4186C16.681 20.4183 16.7629 20.4017 16.8393 20.3695C16.9156 20.3373 16.9847 20.2903 17.0427 20.2311C17.1007 20.172 17.1464 20.1019 17.177 20.025C17.2077 19.948 17.2228 19.8657 17.2213 19.7829C17.2199 19.7001 17.2021 19.6184 17.1688 19.5425C17.1355 19.4667 17.0875 19.3982 17.0276 19.3411C16.3665 18.6927 15.5561 18.2168 14.6677 17.9555C13.7794 17.6942 12.8404 17.6554 11.9335 17.8426C11.0267 18.0298 10.1798 18.4372 9.46751 19.0289C8.75524 19.6206 8.19947 20.3785 7.84918 21.2356C7.49889 22.0928 7.36485 23.023 7.45886 23.9442C7.55287 24.8654 7.87205 25.7493 8.38826 26.518C8.90448 27.2868 9.60188 27.9167 10.419 28.3524C11.2361 28.788 12.1478 29.0159 13.0738 29.0161V29.0173Z" fill="black"/>
<path d="M10.5299 22.9576C10.412 22.8437 10.2541 22.7807 10.0903 22.7822C9.9264 22.7836 9.76964 22.8493 9.65376 22.9652C9.53788 23.0811 9.47215 23.2378 9.47073 23.4017C9.4693 23.5656 9.5323 23.7235 9.64615 23.8413L12.2499 26.4413C12.308 26.4995 12.3769 26.5457 12.4529 26.5772C12.5288 26.6087 12.6102 26.625 12.6924 26.625C12.7746 26.625 12.856 26.6087 12.9319 26.5772C13.0079 26.5457 13.0768 26.4995 13.1349 26.4413L19.3449 20.2301C19.4587 20.1122 19.5217 19.9543 19.5203 19.7905C19.5189 19.6266 19.4532 19.4698 19.3373 19.354C19.2214 19.2381 19.0646 19.1723 18.9008 19.1709C18.7369 19.1695 18.579 19.2325 18.4611 19.3463L12.6874 25.1151L10.5299 22.9576Z" fill="black"/>
<path d="M25.7832 18.9749H26.9682C27.134 18.9749 27.2929 18.909 27.4101 18.7918C27.5274 18.6746 27.5932 18.5156 27.5932 18.3499C27.5932 18.1841 27.5274 18.0251 27.4101 17.9079C27.2929 17.7907 27.134 17.7249 26.9682 17.7249H25.7832C25.6174 17.7249 25.4585 17.7907 25.3413 17.9079C25.2241 18.0251 25.1582 18.1841 25.1582 18.3499C25.1582 18.5156 25.2241 18.6746 25.3413 18.7918C25.4585 18.909 25.6174 18.9749 25.7832 18.9749Z" fill="black"/>
<path d="M44.6367 17.7249H29.5117C29.346 17.7249 29.187 17.7907 29.0698 17.9079C28.9526 18.0251 28.8867 18.1841 28.8867 18.3499C28.8867 18.5156 28.9526 18.6746 29.0698 18.7918C29.187 18.909 29.346 18.9749 29.5117 18.9749H44.6367C44.8025 18.9749 44.9614 18.909 45.0787 18.7918C45.1959 18.6746 45.2617 18.5156 45.2617 18.3499C45.2617 18.1841 45.1959 18.0251 45.0787 17.9079C44.9614 17.7907 44.8025 17.7249 44.6367 17.7249Z" fill="black"/>
<path d="M25.7832 26.0073H26.9682C27.134 26.0073 27.2929 25.9415 27.4101 25.8243C27.5274 25.7071 27.5932 25.5481 27.5932 25.3823C27.5932 25.2166 27.5274 25.0576 27.4101 24.9404C27.2929 24.8232 27.134 24.7573 26.9682 24.7573H25.7832C25.6174 24.7573 25.4585 24.8232 25.3413 24.9404C25.2241 25.0576 25.1582 25.2166 25.1582 25.3823C25.1582 25.5481 25.2241 25.7071 25.3413 25.8243C25.4585 25.9415 25.6174 26.0073 25.7832 26.0073Z" fill="black"/>
<path d="M45.2617 25.3823C45.2617 25.2166 45.1959 25.0576 45.0787 24.9404C44.9614 24.8232 44.8025 24.7573 44.6367 24.7573H29.5117C29.346 24.7573 29.187 24.8232 29.0698 24.9404C28.9526 25.0576 28.8867 25.2166 28.8867 25.3823C28.8867 25.5481 28.9526 25.7071 29.0698 25.8243C29.187 25.9415 29.346 26.0073 29.5117 26.0073H44.6367C44.8025 26.0073 44.9614 25.9415 45.0787 25.8243C45.1959 25.7071 45.2617 25.5481 45.2617 25.3823Z" fill="black"/>
<path d="M44.6357 21.3076H42.6582C42.4924 21.3076 42.3335 21.3735 42.2163 21.4907C42.0991 21.6079 42.0332 21.7669 42.0332 21.9326C42.0332 22.0984 42.0991 22.2573 42.2163 22.3746C42.3335 22.4918 42.4924 22.5576 42.6582 22.5576H44.6357C44.8015 22.5576 44.9604 22.4918 45.0776 22.3746C45.1949 22.2573 45.2607 22.0984 45.2607 21.9326C45.2607 21.7669 45.1949 21.6079 45.0776 21.4907C44.9604 21.3735 44.8015 21.3076 44.6357 21.3076Z" fill="black"/>
<path d="M25.7832 22.5576H40.4157C40.5814 22.5576 40.7404 22.4918 40.8576 22.3746C40.9748 22.2573 41.0407 22.0984 41.0407 21.9326C41.0407 21.7669 40.9748 21.6079 40.8576 21.4907C40.7404 21.3735 40.5814 21.3076 40.4157 21.3076H25.7832C25.6174 21.3076 25.4585 21.3735 25.3413 21.4907C25.2241 21.6079 25.1582 21.7669 25.1582 21.9326C25.1582 22.0984 25.2241 22.2573 25.3413 22.3746C25.4585 22.4918 25.6174 22.5576 25.7832 22.5576Z" fill="black"/>
<path d="M41.1674 28.9163C41.1674 28.7505 41.1016 28.5915 40.9844 28.4743C40.8672 28.3571 40.7082 28.2913 40.5424 28.2913H25.8262C25.6604 28.2913 25.5014 28.3571 25.3842 28.4743C25.267 28.5915 25.2012 28.7505 25.2012 28.9163C25.2012 29.082 25.267 29.241 25.3842 29.3582C25.5014 29.4754 25.6604 29.5413 25.8262 29.5413H40.5424C40.7082 29.5413 40.8672 29.4754 40.9844 29.3582C41.1016 29.241 41.1674 29.082 41.1674 28.9163Z" fill="black"/>
<path d="M18.2734 45.6875C18.2734 45.8533 18.3393 46.0122 18.4565 46.1294C18.5737 46.2467 18.7327 46.3125 18.8984 46.3125H28.4597C28.6254 46.3125 28.7844 46.2467 28.9016 46.1294C29.0188 46.0122 29.0847 45.8533 29.0847 45.6875C29.0847 45.5217 29.0188 45.3628 28.9016 45.2456C28.7844 45.1283 28.6254 45.0625 28.4597 45.0625H18.8984C18.7327 45.0625 18.5737 45.1283 18.4565 45.2456C18.3393 45.3628 18.2734 45.5217 18.2734 45.6875Z" fill="black"/>
</svg>
