<svg width="461" height="81" viewBox="0 0 461 81" fill="none" xmlns="http://www.w3.org/2000/svg">
<path d="M448 13.5L448 22.5C448 39.0685 434.569 52.5 418 52.5L259.5 52.5C243.76 52.5 231 65.2599 231 81V81" stroke="#FFD600" stroke-width="5"/>
<path d="M13 13.5L13 22.5C13 39.0685 26.4315 52.5 43 52.5L201.5 52.5C217.24 52.5 230 65.2599 230 81V81" stroke="#FFD600" stroke-width="5"/>
<rect x="233" y="81" width="5" height="68" transform="rotate(-180 233 81)" fill="#FFD600"/>
<path d="M230.508 12.7279L240.811 12.7274C241.702 12.7274 242.148 13.8045 241.518 14.4345L231.215 24.7381C230.824 25.1284 230.191 25.1287 229.801 24.7387L219.481 14.4356C218.85 13.8059 219.296 12.7279 220.187 12.7279L230.508 12.7279Z" fill="#FFD600"/>
<path d="M12.7385 12.7279L23.0414 12.7274C23.9324 12.7274 24.3786 13.8045 23.7486 14.4345L13.445 24.7381C13.0547 25.1284 12.422 25.1287 12.0313 24.7387L1.71112 14.4356C1.08035 13.8059 1.52634 12.7279 2.41764 12.7279L12.7385 12.7279Z" fill="#FFD600"/>
<path d="M447.738 12.7279L458.041 12.7274C458.932 12.7274 459.379 13.8045 458.749 14.4345L448.445 24.7381C448.055 25.1284 447.422 25.1287 447.031 24.7387L436.711 14.4356C436.08 13.8059 436.526 12.7279 437.418 12.7279L447.738 12.7279Z" fill="#FFD600"/>
</svg>
