<svg width="461" height="77" viewBox="0 0 461 77" fill="none" xmlns="http://www.w3.org/2000/svg">
<path d="M13 67.5V58.5C13 41.9315 26.4315 28.5 43 28.5H201.5C217.24 28.5 230 15.7401 230 0V0" stroke="#FFD600" stroke-width="5"/>
<path d="M448 67.5V58.5C448 41.9315 434.569 28.5 418 28.5H259.5C243.76 28.5 231 15.7401 231 0V0" stroke="#FFD600" stroke-width="5"/>
<rect x="228" width="5" height="68" fill="#FFD600"/>
<path d="M230.508 64.2269L240.811 64.2264C241.702 64.2264 242.148 65.3036 241.518 65.9335L231.215 76.2372C230.824 76.6275 230.191 76.6277 229.801 76.2378L219.481 65.9346C218.85 65.3049 219.296 64.2269 220.187 64.2269L230.508 64.2269Z" fill="#FFD600"/>
<path d="M12.7385 64.2269L23.0414 64.2264C23.9324 64.2264 24.3786 65.3036 23.7486 65.9335L13.445 76.2372C13.0547 76.6275 12.422 76.6277 12.0313 76.2378L1.71112 65.9346C1.08035 65.3049 1.52634 64.2269 2.41764 64.2269L12.7385 64.2269Z" fill="#FFD600"/>
<path d="M447.738 64.2269L458.041 64.2264C458.932 64.2264 459.379 65.3036 458.749 65.9335L448.445 76.2372C448.055 76.6275 447.422 76.6277 447.031 76.2378L436.711 65.9346C436.08 65.3049 436.526 64.2269 437.418 64.2269L447.738 64.2269Z" fill="#FFD600"/>
</svg>
