<svg width="141" height="82" viewBox="0 0 141 82" fill="none" xmlns="http://www.w3.org/2000/svg">
<path d="M58.8518 44.7276C53.1379 52.3061 48.1729 50.4449 44.183 42.9429C42.4972 44.6479 40.6678 46.2063 38.7207 47.6149C34.5109 50.2378 29.9953 47.7806 29.7181 42.8026C29.6193 40.9606 29.7179 39.0899 29.6319 37.2159C29.4598 36.5563 29.1763 35.9379 28.7907 35.377C28.1565 35.6957 27.2449 35.8519 26.9358 36.3682C26.2092 37.7131 25.5816 39.1121 25.0717 40.5495C24.3259 42.3246 23.6663 44.1539 22.8792 45.8781C22.0729 47.65 20.1003 48.5933 18.1978 48.1217C16.308 47.94 14.8675 46.3561 14.8867 44.4662C14.7432 42.0792 15.0141 39.6635 14.8867 37.2669C14.7305 36.4765 14.4658 35.7053 14.0962 34.9915C13.4493 35.5237 12.5219 35.9157 12.1873 36.5945C10.9253 39.3161 9.80036 42.2577 8.5352 45.0463C8.15597 45.9992 7.62391 46.8851 6.96105 47.6691C5.60665 49.2052 3.25475 49.3646 1.70914 48.0197C1.07815 47.4747 0.654218 46.7289 0.501251 45.9131C0.383338 45.5179 0.310109 45.1132 0.290988 44.7021C0.290988 39.1186 0.106029 33.433 0.204821 27.7922C0.25581 26.2943 0.746707 24.8378 1.61033 23.6077C2.50902 22.454 3.77087 21.6222 5.19219 21.2366C7.35285 20.6629 8.42688 21.6828 8.52567 24.0252C8.61171 25.8226 8.52567 27.6391 8.52567 29.4493L9.46572 29.7139C10.1573 29.0478 10.7851 28.3243 11.3491 27.5467C12.5315 25.6218 13.5544 23.5854 14.7367 21.6445C15.5939 19.8917 17.6145 19.028 19.4852 19.6081C21.3272 20.0319 22.5445 21.7815 22.2927 23.6395V29.6948L23.0925 29.9465C23.6598 29.4366 24.1953 28.8885 24.6828 28.2989C26.3687 26.307 27.9397 24.1973 29.6829 22.2564C30.4095 21.431 31.3209 20.7841 32.3375 20.3602C34.3739 19.3722 36.8246 20.2072 37.822 22.2341C38.2045 23.0054 38.3287 23.8722 38.179 24.7167C37.8953 28.7641 37.6436 32.8084 37.4237 36.8558C37.4173 37.5888 37.4524 38.3313 37.532 39.058C40.5691 38.0859 42.7936 35.4918 43.278 32.3622C43.4883 29.0223 43.893 25.7015 44.4985 22.4094C44.8172 20.4175 46.4743 18.8942 48.5011 18.7412C50.3176 18.3683 52.1883 19.0822 53.2782 20.5833C54.5115 22.3361 54.5592 24.6562 53.3897 26.4536C51.7038 29.2422 51.8122 32.2698 52.1946 35.2528C52.3794 36.5626 53.1187 37.7259 54.2214 38.4652C55.7542 39.2046 57.029 37.8661 57.6313 36.5276C58.7084 33.7868 59.6517 30.9918 60.4388 28.1523C61.0316 26.1827 61.2707 24.1049 61.8443 22.1545C62.7111 19.4328 64.6518 18.2345 66.9846 18.7763C69.4544 19.3818 71.0446 21.7688 70.6367 24.2642C70.4709 25.6569 69.9228 26.9125 69.7061 28.2702C69.0305 32.375 68.4441 36.4893 67.7813 40.8267C70.9585 39.8356 73.4826 38.9847 76.0671 38.2995C77.2813 38.0477 78.5241 37.9649 79.7637 38.0605C82.0965 38.0605 83.1927 39.2173 83.9735 41.8402C86.5421 50.1167 92.1095 55.0692 100.717 56.5065C113.107 58.5876 124.905 47.548 123.675 35.1189C123.589 34.2935 123.477 33.4745 123.42 32.6491C122.923 30.3927 124.363 28.1586 126.635 27.6646C128.908 27.1675 131.154 28.5984 131.655 30.858C131.709 31.1193 131.747 31.3838 131.754 31.6515C133.452 42.9556 129.87 52.3412 120.769 59.3015C108.232 68.7954 90.3184 66.3892 80.7612 53.9378C79.9772 52.918 79.2635 51.8408 78.623 50.7222C76.6981 47.4014 76.0798 47.2038 72.5839 48.8674C72.4054 48.9726 72.2141 49.065 72.0229 49.151C68.5238 50.4449 67.2204 52.8861 66.8922 56.6403C66.4301 62.5872 65.4901 68.4894 64.0847 74.2928C62.2013 81.6993 57.6376 83.0123 51.4424 78.4741C43.7909 72.9352 42.3856 64.3719 48.243 57.0993C50.7733 54.196 53.6286 51.5891 56.7708 49.3455C58.3833 48.4149 59.2215 46.5569 58.8518 44.7276ZM58.2718 58.6004L57.4051 58.2211C56.2037 59.8145 55.0947 61.4781 54.0909 63.1991C53.2655 64.8691 53.6478 66.88 55.034 68.1388C55.9327 69.1013 56.8633 69.369 57.1151 67.664C57.5708 64.5982 57.8416 61.6248 58.2718 58.6004Z" fill="#FF2D39"/>
<path d="M117.37 13.7823C117.013 10.8503 118.24 7.95336 120.585 6.14955C122.328 4.60069 123.887 2.816 125.617 1.23846C126.264 0.808227 126.978 0.486339 127.723 0.276001C128.029 0.919764 128.246 1.59859 128.367 2.3029C128.457 4.77279 128.437 7.24265 128.367 9.72528C128.367 11.4558 129.139 12.2207 130.882 12.2079H138.552C139.193 12.3195 139.817 12.5266 140.394 12.8198C140.229 13.5114 139.951 14.1679 139.563 14.7607C137.526 16.9055 135.353 18.9419 133.281 21.0517C131.86 22.5273 129.805 23.2125 127.778 22.881C124.945 22.454 122.105 23.6172 120.4 25.9086C118.22 28.3912 115.665 30.5392 113.373 32.9549C112.73 33.6816 112.376 34.6249 112.376 35.5905C112.739 40.4028 109.1 44.5937 104.262 44.9474C99.415 45.3075 95.1958 41.6935 94.8388 36.8876C94.8165 36.588 94.8102 36.2821 94.8229 35.9825C94.9886 31.2499 98.9912 27.5435 103.755 27.706C103.998 27.7124 104.243 27.7315 104.482 27.7634C105.703 27.9642 106.945 27.518 107.758 26.5874C110.104 24.159 112.462 21.7305 114.995 19.4869C116.834 17.9285 117.962 16.2521 117.37 13.7823Z" fill="#FF2D39"/>
<path d="M77.8308 24.4524C78.073 23.713 78.3725 22.9991 78.7294 22.3076C84.813 11.9022 96.8146 6.39836 108.737 8.55273C111.643 9.10726 113.287 11.0641 112.87 13.4925C112.449 15.921 110.241 17.371 107.248 16.826C99.0519 15.3345 90.7693 18.9676 86.3588 25.9949C85.9955 26.6609 85.5714 27.292 85.0966 27.8783C83.9334 29.2424 81.9959 29.6631 80.3611 28.8982C78.688 28.1971 77.8021 26.8458 77.8308 24.4524Z" fill="#FF2D39"/>
</svg>
