<svg width="29" height="29" viewBox="0 0 29 29" fill="none" xmlns="http://www.w3.org/2000/svg">
<path fill-rule="evenodd" clip-rule="evenodd" d="M12.4709 2.68538C12.4085 2.48892 12.375 2.27958 12.375 2.0625C12.375 0.924 13.299 0 14.4375 0C15.576 0 16.5 0.924 16.5 2.0625C16.5 2.27958 16.4665 2.48892 16.4041 2.68538L25.1347 7.05066C25.509 6.52833 26.1216 6.1875 26.8125 6.1875C27.951 6.1875 28.875 7.1115 28.875 8.25C28.875 9.27867 28.1201 10.1325 27.1348 10.2872V18.5878C28.1201 18.7425 28.875 19.5963 28.875 20.625C28.875 21.7635 27.951 22.6875 26.8125 22.6875C26.1216 22.6875 25.509 22.3467 25.1347 21.8243L16.4041 26.1896C16.4665 26.3861 16.5 26.5954 16.5 26.8125C16.5 27.951 15.576 28.875 14.4375 28.875C13.299 28.875 12.375 27.951 12.375 26.8125C12.375 26.5954 12.4085 26.3861 12.4709 26.1896L3.74034 21.8243C3.366 22.3467 2.75344 22.6875 2.0625 22.6875C0.924 22.6875 0 21.7635 0 20.625C0 19.5963 0.754875 18.7425 1.74023 18.5878V10.2872C0.754875 10.1325 0 9.27867 0 8.25C0 7.1115 0.924 6.1875 2.0625 6.1875C2.75344 6.1875 3.366 6.52833 3.74034 7.05066L12.4709 2.68538ZM19.8201 17.489C19.5613 17.9443 19.2462 18.364 18.8848 18.7378V16.5C18.8848 15.8673 18.6337 15.261 18.1861 14.8139C17.739 14.3663 17.1327 14.1152 16.5 14.1152H16.0674C16.532 13.68 16.8223 13.0613 16.8223 12.375C16.8223 11.0586 15.7539 9.99023 14.4375 9.99023C13.1211 9.99023 12.0527 11.0586 12.0527 12.375C12.0527 13.0613 12.343 13.68 12.8076 14.1152H12.375C11.7423 14.1152 11.136 14.3663 10.6889 14.8139C10.2413 15.261 9.99023 15.8673 9.99023 16.5V18.7378C9.62878 18.364 9.31374 17.9443 9.05489 17.489L4.02909 20.0021C4.09148 20.1986 4.125 20.4079 4.125 20.625C4.125 20.8421 4.09148 21.0514 4.02909 21.2479L12.7597 25.6132C13.0747 25.1738 13.5578 24.8624 14.1152 24.7753V20.6168C12.8066 20.5497 11.6052 20.0748 10.6348 19.3174V16.5C10.6348 16.0385 10.8183 15.5956 11.1447 15.2697C11.4706 14.9433 11.9135 14.7598 12.375 14.7598H16.5C16.9615 14.7598 17.4044 14.9433 17.7303 15.2697C18.0567 15.5956 18.2402 16.0385 18.2402 16.5V19.3174C17.2698 20.0748 16.0684 20.5497 14.7598 20.6168V24.7753C15.3172 24.8624 15.8003 25.1738 16.1153 25.6132L24.8459 21.2479C24.7835 21.0514 24.75 20.8421 24.75 20.625C24.75 20.4079 24.7835 20.1986 24.8459 20.0021L19.8201 17.489ZM3.74034 9.44934C3.4253 9.88866 2.94216 10.2001 2.38477 10.2872V18.5878C2.94216 18.6749 3.4253 18.9863 3.74034 19.4257L8.76562 16.913C8.43408 16.155 8.25 15.3177 8.25 14.4375C8.25 13.5573 8.43408 12.72 8.76562 11.962L3.74034 9.44934ZM25.1347 9.44934L20.1094 11.962C20.4409 12.72 20.625 13.5573 20.625 14.4375C20.625 15.3177 20.4409 16.155 20.1094 16.913L25.1347 19.4257C25.4497 18.9863 25.9328 18.6749 26.4902 18.5878V10.2872C25.9328 10.2001 25.4497 9.88866 25.1347 9.44934ZM14.4375 14.1152C13.4769 14.1152 12.6973 13.3356 12.6973 12.375C12.6973 11.4144 13.4769 10.6348 14.4375 10.6348C15.3981 10.6348 16.1777 11.4144 16.1777 12.375C16.1777 13.3356 15.3981 14.1152 14.4375 14.1152ZM16.1153 3.26184C15.8003 3.70116 15.3172 4.01259 14.7598 4.09973V8.25825C16.93 8.37014 18.8059 9.60145 19.8201 11.386L24.8459 8.87288C24.7835 8.67642 24.75 8.46708 24.75 8.25C24.75 8.03292 24.7835 7.82358 24.8459 7.62712L16.1153 3.26184ZM12.7597 3.26184L4.02909 7.62712C4.09148 7.82358 4.125 8.03292 4.125 8.25C4.125 8.46708 4.09148 8.67642 4.02909 8.87288L9.05489 11.386C10.0696 9.60145 11.9455 8.36963 14.1152 8.25825V4.09973C13.5578 4.01259 13.0747 3.70116 12.7597 3.26184Z" fill="#FFB800"/>
</svg>
