<svg width="62" height="62" viewBox="0 0 62 62" fill="none" xmlns="http://www.w3.org/2000/svg">
<g clip-path="url(#clip0)">
<path d="M9.96432 43.178H14.5579C14.4535 42.4444 14.3984 41.7046 14.393 40.9637V38.7495C14.3934 37.9994 14.5034 37.2535 14.7196 36.5352H11.0715C9.23715 36.5352 7.75 38.0222 7.75 39.8566V40.9638C7.75012 42.1867 8.74139 43.178 9.96432 43.178Z" fill="#FFB800"/>
<path d="M26.459 56.9248L26.7911 58.5467C27.1904 60.553 28.9505 61.9983 30.9959 61.9997C33.0416 62.001 34.8035 60.5579 35.2054 58.5523L35.5375 56.9248C32.5756 57.7854 29.4299 57.7854 26.4679 56.9248H26.459Z" fill="#FFB800"/>
<path d="M30.9991 50.9278C27.9161 50.8901 24.8426 51.2773 21.8652 52.0781C27.1702 56.4489 34.828 56.4489 40.1328 52.0781C37.1555 51.2773 34.082 50.8901 30.9991 50.9278Z" fill="#FFB800"/>
<path d="M8.85742 45.2354V51.039C9.58798 50.8899 10.3412 50.8899 11.0717 51.039V45.3925H9.96458C9.59028 45.3879 9.21816 45.335 8.85742 45.2354Z" fill="#FFB800"/>
<path d="M9.96406 59.7851C11.7985 59.7851 13.2855 58.298 13.2855 56.4636C13.2855 54.6292 11.7985 53.1421 9.96406 53.1421C8.12966 53.1421 6.64258 54.6292 6.64258 56.4636C6.64258 58.298 8.12966 59.7851 9.96406 59.7851Z" fill="#FFB800"/>
<path d="M11.0719 22.0035V13.4253C9.11445 13.9286 7.74609 15.6933 7.74609 17.7143C7.74609 19.7354 9.11458 21.5002 11.0719 22.0035Z" fill="#FFB800"/>
<path d="M47.6074 38.7495V40.9638C47.602 41.7048 47.5469 42.4445 47.4425 43.1781H52.0361C53.259 43.1781 54.2504 42.1867 54.2504 40.9638V39.8566C54.2504 38.0223 52.7634 36.5352 50.9289 36.5352H47.2754C47.4932 37.2531 47.6051 37.9992 47.6074 38.7495Z" fill="#FFB800"/>
<path d="M33.4848 38.7495H28.5137C28.1882 38.7479 27.8921 38.9372 27.7567 39.2333C27.6213 39.5294 27.6719 39.8773 27.886 40.1224L30.2786 42.8514C30.4638 43.0525 30.7248 43.1669 30.9982 43.1669C31.2717 43.1669 31.5326 43.0526 31.7179 42.8514L34.1105 40.1224C34.3243 39.8775 34.375 39.5301 34.2403 39.2343C34.1054 38.9384 33.8099 38.7488 33.4848 38.7495Z" fill="#FFB800"/>
<path d="M18.8208 30.9996H43.1776C46.2333 30.9959 48.7096 28.5197 48.7132 25.464V12.1784C48.7053 5.4558 43.2575 0.00787099 36.5348 0H25.4635C18.7408 0.00787099 13.293 5.4558 13.2852 12.1784V25.4639C13.2888 28.5197 15.765 30.9959 18.8208 30.9996ZM15.4994 16.6069C15.5049 11.7176 19.4671 7.75534 24.3565 7.74989H37.642C42.5313 7.75534 46.4936 11.7176 46.499 16.6069V18.8212C46.4936 23.7106 42.5313 27.6728 37.642 27.6783H24.3565C19.4671 27.6728 15.5049 23.7106 15.4994 18.8212V16.6069Z" fill="#FFB800"/>
<path d="M24.3576 25.4641H37.6431C41.3103 25.4605 44.2822 22.4885 44.2859 18.8214V16.6071C44.2822 12.94 41.3103 9.96799 37.6431 9.96436H24.3576C20.6904 9.96799 17.7185 12.94 17.7148 16.6071V18.8214C17.7185 22.4885 20.6903 25.4604 24.3576 25.4641ZM37.6431 14.3928C40.0889 14.3928 42.0716 16.3756 42.0716 18.8213C42.0716 19.4327 41.5759 19.9284 40.9644 19.9284C40.353 19.9284 39.8573 19.4328 39.8573 18.8213C39.8573 17.5984 38.8659 16.607 37.643 16.607C36.4201 16.607 35.4287 17.5984 35.4287 18.8213C35.4287 19.4327 34.9331 19.9284 34.3215 19.9284C33.7102 19.9284 33.2144 19.4328 33.2144 18.8213C33.2145 16.3756 35.1973 14.3928 37.6431 14.3928ZM24.3576 14.3928C26.8034 14.3928 28.7861 16.3756 28.7861 18.8213C28.7861 19.4327 28.2904 19.9284 27.6789 19.9284C27.0674 19.9284 26.5718 19.4328 26.5718 18.8213C26.5718 17.5984 25.5804 16.607 24.3575 16.607C23.1346 16.607 22.1432 17.5984 22.1432 18.8213C22.1432 19.4327 21.6476 19.9284 21.036 19.9284C20.4245 19.9284 19.9289 19.4328 19.9289 18.8213C19.929 16.3756 21.9118 14.3928 24.3576 14.3928Z" fill="#FFB800"/>
<path d="M45.3927 40.9638V38.7495C45.3891 35.6937 42.9127 33.2175 39.8571 33.2139H22.143C19.0873 33.2175 16.6111 35.6938 16.6074 38.7495V40.9638C16.6067 44.3958 17.8389 47.7138 20.0794 50.3134C23.6094 49.1946 27.2974 48.6543 31.0001 48.7137C34.7028 48.6543 38.3907 49.1946 41.9207 50.3134C44.1612 47.7137 45.3933 44.3956 45.3927 40.9638ZM35.7773 41.5827L33.3858 44.3106C32.7835 44.9981 31.9139 45.3923 30.9999 45.3923C30.0859 45.3923 29.2164 44.9981 28.6141 44.3106L26.2226 41.5827C25.4353 40.684 25.2467 39.4077 25.7407 38.3198C26.2346 37.2319 27.3196 36.5338 28.5144 36.5353H33.4854C34.6802 36.534 35.7652 37.2319 36.2591 38.3198C36.7531 39.4077 36.5647 40.684 35.7773 41.5827Z" fill="#FFB800"/>
<path d="M54.2492 17.7138C54.2462 15.6952 52.8815 13.9328 50.9277 13.4248V22.003C52.8815 21.4949 54.2462 19.7325 54.2492 17.7138Z" fill="#FFB800"/>
<path d="M53.1421 51.039V45.2354C52.7813 45.335 52.4092 45.3879 52.0349 45.3925H50.9277V51.039C51.6583 50.8898 52.4115 50.8898 53.1421 51.039Z" fill="#FFB800"/>
<path d="M52.0344 59.7851C53.8688 59.7851 55.3559 58.298 55.3559 56.4636C55.3559 54.6292 53.8688 53.1421 52.0344 53.1421C50.2 53.1421 48.7129 54.6292 48.7129 56.4636C48.7129 58.298 50.2 59.7851 52.0344 59.7851Z" fill="#FFB800"/>
</g>
<defs>
<clipPath id="clip0">
<rect width="62" height="62" fill="white"/>
</clipPath>
</defs>
</svg>
