<svg width="28" height="28" viewBox="0 0 28 28" fill="none" xmlns="http://www.w3.org/2000/svg">
<path d="M22.9251 17.5C21.9644 17.5 21.1751 18.2873 21.1751 19.25V17.5893C21.1751 16.578 20.3474 15.75 19.3358 15.75C18.5972 15.75 17.9691 16.1963 17.6751 16.8263V15.8393C17.6751 14.828 16.8474 14 15.8358 14C15.0972 14 14.4691 14.4463 14.1751 15.0763V8.75C14.1751 7.78734 13.3894 7 12.4251 7C11.4644 7 10.6751 7.78734 10.6751 8.75V23.688L8.19714 20.7097C7.59848 19.952 6.49445 19.8224 5.74014 20.419C4.98414 21.0157 4.85481 22.1217 5.44981 22.876L8.53511 26.6263C9.13345 27.3803 10.4091 28 11.3715 28H22.9251C23.8894 28 24.6751 27.2127 24.6751 26.25V19.25C24.6751 18.2873 23.8894 17.5 22.9251 17.5Z" fill="#FFB800"/>
<path d="M12.9512 3.5C13.4325 3.5 13.8262 3.1063 13.8262 2.625V0.875C13.8262 0.395336 13.4325 0 12.9512 0C12.4699 0 12.0762 0.395336 12.0762 0.875V2.625C12.0762 3.1063 12.4699 3.5 12.9512 3.5Z" fill="#FFB800"/>
<path d="M8.57617 7.875C8.57617 7.39534 8.18248 7 7.70117 7H4.20117C3.71987 7 3.32617 7.39534 3.32617 7.875C3.32617 8.3563 3.71987 8.75 4.20117 8.75H7.70117C8.18253 8.75 8.57617 8.3563 8.57617 7.875Z" fill="#FFB800"/>
<path d="M17.3262 7.875C17.3262 8.3563 17.7199 8.75 18.2012 8.75H21.7012C22.1825 8.75 22.5762 8.3563 22.5762 7.875C22.5762 7.39534 22.1825 7 21.7012 7H18.2012C17.7182 7 17.3262 7.39534 17.3262 7.875Z" fill="#FFB800"/>
<path d="M17.3258 4.72482L20.1258 2.62482C20.5128 2.33613 20.5915 1.78313 20.3008 1.39982C20.0138 1.01482 19.4608 0.936128 19.0775 1.22482L16.2775 3.32482C15.8888 3.61352 15.8118 4.16482 16.0988 4.54982C16.3895 4.93482 16.9392 5.01352 17.3258 4.72482Z" fill="#FFB800"/>
<path d="M5.77634 2.62482L8.57634 4.72482C8.96304 5.01352 9.51265 4.93482 9.79964 4.54982C10.09 4.16482 10.0113 3.61352 9.62634 3.32482L6.82634 1.22482C6.44331 0.936128 5.89004 1.01482 5.60331 1.39982C5.3127 1.78313 5.39134 2.33613 5.77634 2.62482Z" fill="#FFB800"/>
</svg>
