<svg width="71" height="81" viewBox="0 0 71 81" fill="none" xmlns="http://www.w3.org/2000/svg">
<path d="M23.3401 35.0975V32.6201C22.4878 32.484 21.627 32.4094 20.7643 32.3969C12.4113 32.3789 5.01621 37.8408 2.50782 45.8801C-0.000582933 53.9194 2.96029 62.6709 9.81652 67.4845C7.30233 64.7694 5.62067 61.3781 4.97453 57.7199C4.3284 54.0617 4.74541 50.293 6.17524 46.8686C7.60506 43.4443 9.98657 40.5107 13.0323 38.422C16.078 36.3333 19.6578 35.1788 23.3395 35.0978L23.3401 35.0975Z" fill="#25F4EE"/>
<path d="M23.8032 63.1595C28.4734 63.153 32.3122 59.4406 32.5167 54.7328V12.7211H40.123C39.9678 11.8433 39.8937 10.9527 39.9018 10.061L29.4979 10.061V52.0322C29.3249 56.764 25.4769 60.512 20.7844 60.5196C19.3821 60.5076 18.0027 60.1597 16.7598 59.5045C17.5653 60.6306 18.6233 61.5487 19.8473 62.1839C21.0713 62.8191 22.4268 63.1534 23.8032 63.1595ZM54.3303 26.9752V24.6401C51.5309 24.6412 48.7936 23.8077 46.4621 22.2443C48.5059 24.6418 51.2679 26.3025 54.3303 26.9752Z" fill="#25F4EE"/>
<path d="M46.4631 22.2442C44.1663 19.6053 42.9001 16.2128 42.9013 12.7006H40.124C40.4827 14.6424 41.2298 16.4901 42.3197 18.131C43.4096 19.7718 44.8194 21.1714 46.4631 22.2442ZM20.7653 42.8947C18.8175 42.9047 16.9289 43.5714 15.3998 44.7889C13.8706 46.0064 12.7887 47.7047 12.3261 49.6139C11.8635 51.5231 12.0466 53.5336 12.8465 55.3257C13.6463 57.1178 15.0169 58.5886 16.7404 59.5044C15.7981 58.1916 15.2338 56.6415 15.1099 55.0253C14.9859 53.4092 15.3072 51.7899 16.0381 50.3465C16.769 48.903 17.8812 47.6915 19.2517 46.8459C20.6222 46.0002 22.1978 45.5533 23.8042 45.5545C24.6776 45.566 25.5448 45.7032 26.3798 45.9619V35.2802C25.5271 35.1512 24.6664 35.0833 23.8042 35.0772H23.3411V43.1992C22.5018 42.972 21.634 42.8694 20.7653 42.8947Z" fill="#FE2C55"/>
<path d="M54.3321 26.9752V35.0975C49.1497 35.0873 44.1018 33.4321 39.9035 30.3663V51.7072C39.8812 62.356 31.3196 70.977 20.7661 70.977C16.8466 70.9841 13.0214 69.7639 9.81836 67.4845C12.4303 70.3192 15.8277 72.2946 19.5681 73.1532C23.3084 74.0119 27.2184 73.7141 30.7886 72.2986C34.3589 70.8831 37.4239 68.4156 39.5845 65.2173C41.7452 62.0191 42.9012 58.2385 42.902 54.3679V33.0874C47.1144 36.133 52.1685 37.7666 57.3506 37.7576V27.2994C56.336 27.2963 55.3245 27.1877 54.3321 26.9752Z" fill="#FE2C55"/>
<path d="M39.9022 51.7071V30.3662C44.1132 33.4146 49.1682 35.0485 54.3508 35.0364V26.9144C51.289 26.262 48.5205 24.6229 46.4625 22.2442C44.8188 21.1714 43.409 19.7718 42.3191 18.131C41.2292 16.4901 40.4821 14.6424 40.1234 12.7006H32.5171V54.7333C32.4431 56.5629 31.806 58.3238 30.6945 59.7712C29.583 61.2187 28.0522 62.2808 26.3149 62.81C24.5776 63.3392 22.7201 63.3092 21.0004 62.7242C19.2808 62.1391 17.7845 61.0281 16.7195 59.5455C14.9957 58.6298 13.6248 57.159 12.8247 55.3667C12.0247 53.5745 11.8414 51.5639 12.3041 49.6545C12.7668 47.7451 13.8488 46.0466 15.3782 44.8291C16.9075 43.6116 18.7964 42.9449 20.7444 42.9352C21.6181 42.9431 22.4859 43.0799 23.3202 43.3414V35.2192C19.6187 35.2825 16.0154 36.4312 12.9497 38.5251C9.88401 40.6191 7.48833 43.5679 6.05478 47.0119C4.62123 50.456 4.21175 54.2465 4.87627 57.9213C5.54079 61.5961 7.25059 64.9964 9.79721 67.7076C13.0318 69.9119 16.8623 71.0537 20.7647 70.977C31.3182 70.977 39.8799 62.356 39.9022 51.7071Z" fill="black"/>
</svg>
