<svg width="98" height="57" viewBox="0 0 98 57" fill="none" xmlns="http://www.w3.org/2000/svg">
<path fill-rule="evenodd" clip-rule="evenodd" d="M95.7511 3.86047C96.432 1.63488 95.7512 0 92.5094 0H81.7887C79.0628 0 77.8043 1.41204 77.1234 2.96917C77.1234 2.96917 71.6715 15.9859 63.9475 24.44C61.4485 26.8859 60.3138 27.6657 58.9496 27.6657C58.2687 27.6657 57.281 26.8859 57.281 24.6603V3.86047C57.281 1.18924 56.4918 0 54.2197 0H37.3715C35.6668 0 34.643 1.23847 34.643 2.41474C34.643 4.94347 38.5037 5.52901 38.9034 12.6488V28.1088C38.9034 31.5003 38.2767 32.1143 36.915 32.1143C33.2813 32.1143 24.4381 19.0406 19.1951 4.08328C18.1687 1.17369 17.1371 0 14.3983 0H3.67497C0.613758 0 0 1.41204 0 2.96917C0 5.75181 3.63377 19.5432 16.9231 37.7884C25.7843 50.2455 38.2664 57 49.6241 57C56.4403 57 57.281 55.4999 57.281 52.9168V43.4988C57.281 40.5011 57.9283 39.9 60.0869 39.9C61.6755 39.9 64.4015 40.6798 70.7637 46.6882C78.0312 53.8054 79.2304 57 83.3207 57H94.0413C97.1051 57 98.6344 55.4998 97.7524 52.541C96.7853 49.59 93.314 45.3098 88.7081 40.2342C86.2091 37.3428 82.4618 34.2285 81.3271 32.6714C79.7359 30.6686 80.1898 29.7773 81.3271 27.9974C81.3271 27.9974 94.3894 9.9776 95.7511 3.86047Z" fill="#5181B8"/>
</svg>
