<svg width="61" height="61" viewBox="0 0 61 61" fill="none" xmlns="http://www.w3.org/2000/svg">
<path d="M3.8125 9.53125H57.1875V4.76562C57.1875 4.51284 57.0871 4.27041 56.9083 4.09166C56.7296 3.91292 56.4872 3.8125 56.2344 3.8125H4.76562C4.51284 3.8125 4.27041 3.91292 4.09166 4.09166C3.91292 4.27041 3.8125 4.51284 3.8125 4.76562V9.53125ZM53.375 5.71875H54.3281C54.5809 5.71875 54.8233 5.81917 55.0021 5.99791C55.1808 6.17666 55.2812 6.41909 55.2812 6.67188C55.2812 6.92466 55.1808 7.16709 55.0021 7.34584C54.8233 7.52458 54.5809 7.625 54.3281 7.625H53.375C53.1222 7.625 52.8798 7.52458 52.701 7.34584C52.5223 7.16709 52.4219 6.92466 52.4219 6.67188C52.4219 6.41909 52.5223 6.17666 52.701 5.99791C52.8798 5.81917 53.1222 5.71875 53.375 5.71875ZM26.6875 5.71875H49.5625C49.8153 5.71875 50.0577 5.81917 50.2365 5.99791C50.4152 6.17666 50.5156 6.41909 50.5156 6.67188C50.5156 6.92466 50.4152 7.16709 50.2365 7.34584C50.0577 7.52458 49.8153 7.625 49.5625 7.625H26.6875C26.4347 7.625 26.1923 7.52458 26.0135 7.34584C25.8348 7.16709 25.7344 6.92466 25.7344 6.67188C25.7344 6.41909 25.8348 6.17666 26.0135 5.99791C26.1923 5.81917 26.4347 5.71875 26.6875 5.71875ZM16.2031 5.71875H17.1562C17.409 5.71875 17.6515 5.81917 17.8302 5.99791C18.009 6.17666 18.1094 6.41909 18.1094 6.67188C18.1094 6.92466 18.009 7.16709 17.8302 7.34584C17.6515 7.52458 17.409 7.625 17.1562 7.625H16.2031C15.9503 7.625 15.7079 7.52458 15.5292 7.34584C15.3504 7.16709 15.25 6.92466 15.25 6.67188C15.25 6.41909 15.3504 6.17666 15.5292 5.99791C15.7079 5.81917 15.9503 5.71875 16.2031 5.71875ZM11.4375 5.71875H12.3906C12.6434 5.71875 12.8858 5.81917 13.0646 5.99791C13.2433 6.17666 13.3438 6.41909 13.3438 6.67188C13.3438 6.92466 13.2433 7.16709 13.0646 7.34584C12.8858 7.52458 12.6434 7.625 12.3906 7.625H11.4375C11.1847 7.625 10.9423 7.52458 10.7635 7.34584C10.5848 7.16709 10.4844 6.92466 10.4844 6.67188C10.4844 6.41909 10.5848 6.17666 10.7635 5.99791C10.9423 5.81917 11.1847 5.71875 11.4375 5.71875ZM6.67188 5.71875H7.625C7.87778 5.71875 8.12022 5.81917 8.29896 5.99791C8.47771 6.17666 8.57812 6.41909 8.57812 6.67188C8.57812 6.92466 8.47771 7.16709 8.29896 7.34584C8.12022 7.52458 7.87778 7.625 7.625 7.625H6.67188C6.41909 7.625 6.17666 7.52458 5.99791 7.34584C5.81917 7.16709 5.71875 6.92466 5.71875 6.67188C5.71875 6.41909 5.81917 6.17666 5.99791 5.99791C6.17666 5.81917 6.41909 5.71875 6.67188 5.71875Z" fill="#FFB800"/>
<path d="M9.53125 17.1562H26.6875V30.5H9.53125V17.1562Z" fill="#FFB800"/>
<path d="M9.53125 38.125H26.6875V51.4688H9.53125V38.125Z" fill="#FFB800"/>
<path d="M4.76562 57.1875H56.2344C56.4872 57.1875 56.7296 57.0871 56.9083 56.9083C57.0871 56.7296 57.1875 56.4872 57.1875 56.2344V11.4375H3.8125V56.2344C3.8125 56.4872 3.91292 56.7296 4.09166 56.9083C4.27041 57.0871 4.51284 57.1875 4.76562 57.1875ZM52.4219 53.375H51.4688C51.216 53.375 50.9735 53.2746 50.7948 53.0958C50.616 52.9171 50.5156 52.6747 50.5156 52.4219C50.5156 52.1691 50.616 51.9267 50.7948 51.7479C50.9735 51.5692 51.216 51.4688 51.4688 51.4688H52.4219C52.6747 51.4688 52.9171 51.5692 53.0958 51.7479C53.2746 51.9267 53.375 52.1691 53.375 52.4219C53.375 52.6747 53.2746 52.9171 53.0958 53.0958C52.9171 53.2746 52.6747 53.375 52.4219 53.375ZM52.4219 32.4062H51.4688C51.216 32.4062 50.9735 32.3058 50.7948 32.1271C50.616 31.9483 50.5156 31.7059 50.5156 31.4531C50.5156 31.2003 50.616 30.9579 50.7948 30.7792C50.9735 30.6004 51.216 30.5 51.4688 30.5H52.4219C52.6747 30.5 52.9171 30.6004 53.0958 30.7792C53.2746 30.9579 53.375 31.2003 53.375 31.4531C53.375 31.7059 53.2746 31.9483 53.0958 32.1271C52.9171 32.3058 52.6747 32.4062 52.4219 32.4062ZM53.375 37.1719C53.375 37.4247 53.2746 37.6671 53.0958 37.8458C52.9171 38.0246 52.6747 38.125 52.4219 38.125H38.125C37.8722 38.125 37.6298 38.0246 37.451 37.8458C37.2723 37.6671 37.1719 37.4247 37.1719 37.1719C37.1719 36.9191 37.2723 36.6767 37.451 36.4979C37.6298 36.3192 37.8722 36.2188 38.125 36.2188H52.4219C52.6747 36.2188 52.9171 36.3192 53.0958 36.4979C53.2746 36.6767 53.375 36.9191 53.375 37.1719ZM38.125 15.25H52.4219C52.6747 15.25 52.9171 15.3504 53.0958 15.5292C53.2746 15.7079 53.375 15.9503 53.375 16.2031C53.375 16.4559 53.2746 16.6983 53.0958 16.8771C52.9171 17.0558 52.6747 17.1562 52.4219 17.1562H38.125C37.8722 17.1562 37.6298 17.0558 37.451 16.8771C37.2723 16.6983 37.1719 16.4559 37.1719 16.2031C37.1719 15.9503 37.2723 15.7079 37.451 15.5292C37.6298 15.3504 37.8722 15.25 38.125 15.25ZM33.3594 15.25H34.3125C34.5653 15.25 34.8077 15.3504 34.9865 15.5292C35.1652 15.7079 35.2656 15.9503 35.2656 16.2031C35.2656 16.4559 35.1652 16.6983 34.9865 16.8771C34.8077 17.0558 34.5653 17.1562 34.3125 17.1562H33.3594C33.1066 17.1562 32.8642 17.0558 32.6854 16.8771C32.5067 16.6983 32.4062 16.4559 32.4062 16.2031C32.4062 15.9503 32.5067 15.7079 32.6854 15.5292C32.8642 15.3504 33.1066 15.25 33.3594 15.25ZM33.3594 19.0625H52.4219C52.6747 19.0625 52.9171 19.1629 53.0958 19.3417C53.2746 19.5204 53.375 19.7628 53.375 20.0156C53.375 20.2684 53.2746 20.5108 53.0958 20.6896C52.9171 20.8683 52.6747 20.9688 52.4219 20.9688H33.3594C33.1066 20.9688 32.8642 20.8683 32.6854 20.6896C32.5067 20.5108 32.4062 20.2684 32.4062 20.0156C32.4062 19.7628 32.5067 19.5204 32.6854 19.3417C32.8642 19.1629 33.1066 19.0625 33.3594 19.0625ZM33.3594 22.875H52.4219C52.6747 22.875 52.9171 22.9754 53.0958 23.1542C53.2746 23.3329 53.375 23.5753 53.375 23.8281C53.375 24.0809 53.2746 24.3233 53.0958 24.5021C52.9171 24.6808 52.6747 24.7812 52.4219 24.7812H33.3594C33.1066 24.7812 32.8642 24.6808 32.6854 24.5021C32.5067 24.3233 32.4062 24.0809 32.4062 23.8281C32.4062 23.5753 32.5067 23.3329 32.6854 23.1542C32.8642 22.9754 33.1066 22.875 33.3594 22.875ZM33.3594 26.6875H52.4219C52.6747 26.6875 52.9171 26.7879 53.0958 26.9667C53.2746 27.1454 53.375 27.3878 53.375 27.6406C53.375 27.8934 53.2746 28.1358 53.0958 28.3146C52.9171 28.4933 52.6747 28.5938 52.4219 28.5938H33.3594C33.1066 28.5938 32.8642 28.4933 32.6854 28.3146C32.5067 28.1358 32.4062 27.8934 32.4062 27.6406C32.4062 27.3878 32.5067 27.1454 32.6854 26.9667C32.8642 26.7879 33.1066 26.6875 33.3594 26.6875ZM33.3594 30.5H47.6562C47.909 30.5 48.1515 30.6004 48.3302 30.7792C48.509 30.9579 48.6094 31.2003 48.6094 31.4531C48.6094 31.7059 48.509 31.9483 48.3302 32.1271C48.1515 32.3058 47.909 32.4062 47.6562 32.4062H33.3594C33.1066 32.4062 32.8642 32.3058 32.6854 32.1271C32.5067 31.9483 32.4062 31.7059 32.4062 31.4531C32.4062 31.2003 32.5067 30.9579 32.6854 30.7792C32.8642 30.6004 33.1066 30.5 33.3594 30.5ZM33.3594 36.2188H34.3125C34.5653 36.2188 34.8077 36.3192 34.9865 36.4979C35.1652 36.6767 35.2656 36.9191 35.2656 37.1719C35.2656 37.4247 35.1652 37.6671 34.9865 37.8458C34.8077 38.0246 34.5653 38.125 34.3125 38.125H33.3594C33.1066 38.125 32.8642 38.0246 32.6854 37.8458C32.5067 37.6671 32.4062 37.4247 32.4062 37.1719C32.4062 36.9191 32.5067 36.6767 32.6854 36.4979C32.8642 36.3192 33.1066 36.2188 33.3594 36.2188ZM33.3594 40.0312H52.4219C52.6747 40.0312 52.9171 40.1317 53.0958 40.3104C53.2746 40.4892 53.375 40.7316 53.375 40.9844C53.375 41.2372 53.2746 41.4796 53.0958 41.6583C52.9171 41.8371 52.6747 41.9375 52.4219 41.9375H33.3594C33.1066 41.9375 32.8642 41.8371 32.6854 41.6583C32.5067 41.4796 32.4062 41.2372 32.4062 40.9844C32.4062 40.7316 32.5067 40.4892 32.6854 40.3104C32.8642 40.1317 33.1066 40.0312 33.3594 40.0312ZM33.3594 43.8438H52.4219C52.6747 43.8438 52.9171 43.9442 53.0958 44.1229C53.2746 44.3017 53.375 44.5441 53.375 44.7969C53.375 45.0497 53.2746 45.2921 53.0958 45.4708C52.9171 45.6496 52.6747 45.75 52.4219 45.75H33.3594C33.1066 45.75 32.8642 45.6496 32.6854 45.4708C32.5067 45.2921 32.4062 45.0497 32.4062 44.7969C32.4062 44.5441 32.5067 44.3017 32.6854 44.1229C32.8642 43.9442 33.1066 43.8438 33.3594 43.8438ZM33.3594 47.6562H52.4219C52.6747 47.6562 52.9171 47.7567 53.0958 47.9354C53.2746 48.1142 53.375 48.3566 53.375 48.6094C53.375 48.8622 53.2746 49.1046 53.0958 49.2833C52.9171 49.4621 52.6747 49.5625 52.4219 49.5625H33.3594C33.1066 49.5625 32.8642 49.4621 32.6854 49.2833C32.5067 49.1046 32.4062 48.8622 32.4062 48.6094C32.4062 48.3566 32.5067 48.1142 32.6854 47.9354C32.8642 47.7567 33.1066 47.6562 33.3594 47.6562ZM33.3594 51.4688H47.6562C47.909 51.4688 48.1515 51.5692 48.3302 51.7479C48.509 51.9267 48.6094 52.1691 48.6094 52.4219C48.6094 52.6747 48.509 52.9171 48.3302 53.0958C48.1515 53.2746 47.909 53.375 47.6562 53.375H33.3594C33.1066 53.375 32.8642 53.2746 32.6854 53.0958C32.5067 52.9171 32.4062 52.6747 32.4062 52.4219C32.4062 52.1691 32.5067 51.9267 32.6854 51.7479C32.8642 51.5692 33.1066 51.4688 33.3594 51.4688ZM7.625 16.2031C7.625 15.9503 7.72542 15.7079 7.90416 15.5292C8.08291 15.3504 8.32534 15.25 8.57812 15.25H27.6406C27.8934 15.25 28.1358 15.3504 28.3146 15.5292C28.4933 15.7079 28.5938 15.9503 28.5938 16.2031V31.4531C28.5938 31.7059 28.4933 31.9483 28.3146 32.1271C28.1358 32.3058 27.8934 32.4062 27.6406 32.4062H8.57812C8.32534 32.4062 8.08291 32.3058 7.90416 32.1271C7.72542 31.9483 7.625 31.7059 7.625 31.4531V16.2031ZM7.625 37.1719C7.625 36.9191 7.72542 36.6767 7.90416 36.4979C8.08291 36.3192 8.32534 36.2188 8.57812 36.2188H27.6406C27.8934 36.2188 28.1358 36.3192 28.3146 36.4979C28.4933 36.6767 28.5938 36.9191 28.5938 37.1719V52.4219C28.5938 52.6747 28.4933 52.9171 28.3146 53.0958C28.1358 53.2746 27.8934 53.375 27.6406 53.375H8.57812C8.32534 53.375 8.08291 53.2746 7.90416 53.0958C7.72542 52.9171 7.625 52.6747 7.625 52.4219V37.1719Z" fill="#FFB800"/>
</svg>
