<svg width="27" height="58" viewBox="0 0 27 58" fill="none" xmlns="http://www.w3.org/2000/svg">
<path d="M21.2091 31.5507H18.0504C13.0867 31.5507 8.27325 27.8406 8.27325 18.5588C8.27325 8.89371 12.7862 4.94848 17.3732 4.94848H21.2091V31.5507ZM26.1728 0H17.5997C9.17471 0 2.03167 6.57327 2.03167 19.3333C2.03167 26.9887 5.49097 32.6345 11.6585 35.4171L0.15083 56.7617C-0.225797 57.4573 0.150831 58 0.751748 58H6.09188C6.54261 58 6.84514 57.8454 6.99533 57.4574L17.4495 36.5008H21.2091V57.4574C21.2091 57.6908 21.4356 58 21.736 58H26.3991C26.8498 58 27 57.7665 27 57.3816V0.771375C27 0.231884 26.6996 0 26.1728 0Z" fill="#ED1E24"/>
</svg>
