<svg width="30" height="30" viewBox="0 0 30 30" fill="none" xmlns="http://www.w3.org/2000/svg">
<path d="M29.4067 15.3456C29.4067 14.326 29.3243 13.3007 29.1474 12.2972H15V18.0732H23.1017C22.7656 19.9364 21.6855 21.5846 20.1036 22.6317V26.3797H24.9373C27.7755 23.7668 29.4067 19.9089 29.4067 15.3456Z" fill="#4285F4"/>
<path d="M14.9978 30.0001C19.043 30.0001 22.454 28.6718 24.94 26.3797L20.1062 22.6316C18.7619 23.5462 17.0257 24.0641 15.0027 24.0641C11.0899 24.0641 7.77186 21.4245 6.58181 17.8752H1.59375V21.7388C4.14029 26.8038 9.32628 30.0001 14.9978 30.0001Z" fill="#34A853"/>
<path d="M6.57781 17.8753C5.94926 16.0121 5.94926 13.9947 6.57781 12.1324V8.2688H1.59542C-0.531808 12.5065 -0.531808 17.5004 1.59542 21.7388L6.57781 17.8753Z" fill="#FBBC04"/>
<path d="M14.9978 5.93701C17.1356 5.90388 19.2022 6.70859 20.7509 8.18551L25.0337 3.90341C22.3223 1.35676 18.7231 -0.0434108 14.9978 0.00102627C9.32628 0.00102627 4.14029 3.19806 1.59375 8.26793L6.57614 12.1315C7.76134 8.57656 11.0843 5.93701 14.9978 5.93701Z" fill="#EA4335"/>
</svg>
