<svg width="40" height="23" viewBox="0 0 40 23" fill="none" xmlns="http://www.w3.org/2000/svg">
<path fill-rule="evenodd" clip-rule="evenodd" d="M39.0821 1.55773C39.36 0.659688 39.0821 0 37.7589 0H33.3831C32.2705 0 31.7568 0.569769 31.4789 1.19809C31.4789 1.19809 29.2537 6.45045 26.101 9.86177C25.081 10.8487 24.6179 11.1634 24.0611 11.1634C23.7832 11.1634 23.38 10.8487 23.38 9.95064V1.55773C23.38 0.479869 23.0579 0 22.1305 0H15.2537C14.5579 0 14.14 0.499734 14.14 0.974371C14.14 1.99473 15.7158 2.231 15.8789 5.10391V11.3421C15.8789 12.7106 15.6232 12.9584 15.0674 12.9584C13.5842 12.9584 9.97473 7.68305 7.83473 1.64764C7.41578 0.473595 6.99474 0 5.87685 0H1.49999C0.250513 0 0 0.569769 0 1.19809C0 2.3209 1.48317 7.88587 6.90738 15.248C10.5242 20.2745 15.619 23 20.2547 23C23.0368 23 23.38 22.3947 23.38 21.3524V17.5521C23.38 16.3425 23.6442 16.1 24.5253 16.1C25.1737 16.1 26.2863 16.4147 28.8832 18.8391C31.8495 21.7109 32.339 23 34.0084 23H38.3842C39.6347 23 40.2589 22.3947 39.8989 21.2008C39.5042 20.01 38.0874 18.2829 36.2074 16.2349C35.1874 15.0681 33.6579 13.8115 33.1947 13.1832C32.5453 12.375 32.7305 12.0154 33.1947 11.2972C33.1947 11.2972 38.5263 4.02605 39.0821 1.55773Z" fill="#5181B8"/>
</svg>
