<svg width="16" height="33" viewBox="0 0 16 33" fill="none" xmlns="http://www.w3.org/2000/svg">
<path d="M12.5684 17.9513H10.6965C7.75509 17.9513 4.90267 15.8403 4.90267 10.5593C4.90267 5.06022 7.577 2.81551 10.2952 2.81551H12.5684V17.9513ZM15.5098 0H10.4294C5.43686 0 1.20395 3.73996 1.20395 11C1.20395 15.3557 3.25391 18.5679 6.90871 20.1511L0.0893809 32.2954C-0.133806 32.6912 0.0893816 33 0.44548 33H3.61C3.8771 33 4.05638 32.912 4.14538 32.6913L10.3404 20.7677H12.5684V32.6913C12.5684 32.8241 12.7026 33 12.8806 33H15.6439C15.911 33 16 32.8672 16 32.6482V0.438886C16 0.131934 15.822 0 15.5098 0Z" fill="#ED1E24"/>
</svg>
